<?xml version="1.0" standalone="no"?>
<!DOCTYPE svg PUBLIC "-//W3C//DTD SVG 1.1//EN" "http://www.w3.org/Graphics/SVG/1.1/DTD/svg11.dtd" >
<svg xmlns="http://www.w3.org/2000/svg">
<metadata>Generated by IcoMoon</metadata>
<defs>
<font id="icomoon" horiz-adv-x="1024">
<font-face units-per-em="1024" ascent="960" descent="-64" />
<missing-glyph horiz-adv-x="1024" />
<glyph unicode="&#x20;" horiz-adv-x="512" d="" />
<glyph unicode="&#xe900;" glyph-name="add-new-user" d="M949.932 863.841c-47.842 47.842-111.447 74.186-179.106 74.186-67.656 0-131.264-26.345-179.101-74.186-47.842-47.842-74.19-111.445-74.19-179.106 0-67.656 26.348-131.261 74.19-179.101 47.84-47.842 111.445-74.191 179.101-74.191 67.658 0 131.266 26.35 179.106 74.191 98.757 98.757 98.757 259.448 0 358.207zM909.714 545.851c-37.097-37.102-86.424-57.531-138.887-57.531-52.465 0-101.786 20.43-138.882 57.531-37.1 37.097-57.53 86.419-57.53 138.882s20.43 101.791 57.53 138.887c37.097 37.097 86.421 57.528 138.882 57.528 52.465 0 101.791-20.43 138.887-57.528 76.581-76.577 76.581-201.189 0-277.77zM850.62 714.286h-54.684v54.682c0 15.706-12.733 28.438-28.438 28.438s-28.438-12.731-28.438-28.438v-54.682h-54.684c-15.705 0-28.438-12.733-28.438-28.438 0-15.71 12.733-28.438 28.438-28.438h54.684v-54.685c0-15.71 12.733-28.438 28.438-28.438s28.438 12.728 28.438 28.438v54.685h54.684c15.705 0 28.438 12.728 28.438 28.438 0 15.705-12.731 28.438-28.438 28.438zM604.708 173.171c-38.822 27.374-84.932 47.572-135.111 59.691 46.54 40.311 76.741 104.796 76.741 177.332 0 121.841-85.203 220.966-189.932 220.966-104.724 0-189.928-99.124-189.928-220.966 0-72.538 30.201-137.023 76.741-177.337-50.176-12.112-96.286-32.313-135.108-59.686-69.717-49.157-108.112-115.483-108.112-186.763 0-15.705 12.733-28.438 28.438-28.438h655.94c15.706 0 28.438 12.733 28.438 28.438 0.002 71.28-38.393 137.606-108.107 186.763zM546.338 14.846v50.79c0 15.705-12.733 28.438-28.438 28.438s-28.438-12.733-28.438-28.438v-50.79h-266.107v50.79c0 15.705-12.733 28.438-28.438 28.438s-28.438-12.733-28.438-28.438v-50.79h-106.63c8.783 41.699 36.792 80.642 81.036 111.838 57.195 40.327 133.737 62.538 215.525 62.538s158.33-22.207 215.52-62.538c44.244-31.197 72.254-70.137 81.033-111.838h-106.626zM223.355 410.193c0 90.48 59.688 164.091 133.053 164.091s133.056-73.614 133.056-164.091c0-90.485-59.688-164.096-133.053-164.096s-133.056 73.614-133.056 164.096z" />
<glyph unicode="&#xe901;" glyph-name="Agenda" d="M416 640h-160v256h160v-256zM320 704h32v128h-32v-128zM768 640h-160v256h160v-256zM672 704h32v128h-32v-128zM1024 0h-1024v800h192v-64h-128v-672h896v672h-128v64h192zM480 800h64v-64h-64v64zM256 384h512v-64h-512v64zM256 256h512v-64h-512v64zM32 576h960v-64h-960v64z" />
<glyph unicode="&#xe902;" glyph-name="alarm1" d="M860.16 186.829c-58.573 43.981-92.16 111.206-92.16 184.371v153.6c0 128.666-86.733 237.466-204.8 270.95v36.25c0 42.342-34.458 76.8-76.8 76.8s-76.8-34.458-76.8-76.8v-36.25c-118.067-33.536-204.8-142.285-204.8-270.95v-153.6c0-73.165-33.587-140.339-92.16-184.371-8.806-6.605-12.39-18.125-8.909-28.57s13.261-17.51 24.269-17.51h232.96c-1.69-8.397-2.611-16.947-2.611-25.6 0-70.554 57.446-128 128-128s128 57.446 128 128c0 8.602-0.87 17.203-2.56 25.6h232.96c11.008 0 20.787 7.066 24.269 17.51s-0.102 21.965-8.909 28.57zM460.8 832c0 14.131 11.469 25.6 25.6 25.6s25.6-11.469 25.6-25.6v-26.778c-8.448 0.768-16.947 1.178-25.6 1.178s-17.152-0.41-25.6-1.178v26.778zM563.2 115.2c0-42.342-34.458-76.8-76.8-76.8s-76.8 34.458-76.8 76.8c0 8.755 1.536 17.408 4.403 25.6h144.794c2.867-8.192 4.403-16.845 4.403-25.6zM191.59 192c13.056 15.821 24.422 33.075 33.741 51.251 20.378 39.834 30.669 82.893 30.669 127.949v153.6c0 127.027 103.373 230.4 230.4 230.4s230.4-103.373 230.4-230.4v-153.6c0-45.056 10.342-88.115 30.669-127.949 9.318-18.227 20.685-35.43 33.741-51.251h-589.67z" />
<glyph unicode="&#xe903;" glyph-name="alarm-clock-with-bells" d="M403.535 315.803c-5.712 0-11.429 2.13-15.863 6.411-9.059 8.761-9.308 23.208-0.548 32.27l94.872 98.156-121.793 158.917c-7.668 10.005-5.769 24.331 4.233 31.999 10.002 7.671 24.331 5.772 31.999-4.233l133.752-174.524c6.877-8.971 6.15-21.617-1.707-29.742l-108.535-112.29c-4.476-4.634-10.443-6.965-16.411-6.965zM512 790.731c-189.614 0-343.869-154.258-343.869-343.869 0-189.614 154.255-343.875 343.869-343.875s343.875 154.261 343.875 343.875c0 189.611-154.264 343.869-343.875 343.869zM534.822 149.501v19.362c0 12.607-10.215 22.822-22.822 22.822s-22.822-10.215-22.822-22.822v-19.365c-147.646 11.225-265.565 130.444-274.798 278.632h19.624c12.601 0 22.822 10.215 22.822 22.822s-10.221 22.822-22.822 22.822h-19.006c12.975 144.372 129.261 259.434 274.18 270.449v-19.365c0-12.604 10.215-22.822 22.822-22.822s22.822 10.218 22.822 22.822v19.362c144.919-11.018 261.205-126.075 274.18-270.446h-19c-12.607 0-22.822-10.215-22.822-22.822s10.215-22.822 22.822-22.822h19.624c-9.232-148.188-127.158-267.403-274.804-278.629zM968.707 891.513c-33.573 32.127-77.637 49.819-124.088 49.819-49.448 0-95.508-19.669-129.693-55.384-8.712-9.104-8.398-23.552 0.712-32.267l96.689-92.545-9.96-10.416c-75.538 72.215-177.862 116.629-290.368 116.629s-214.825-44.412-290.362-116.623l-9.966 10.416 96.689 92.542c9.104 8.712 9.427 23.16 0.706 32.267-34.178 35.715-80.239 55.381-129.687 55.381-46.453 0-90.515-17.692-124.088-49.819-71.491-68.429-73.986-182.271-5.562-253.771 4.19-4.376 9.938-6.904 15.988-7.038 0.173-0.003 0.338-0.006 0.505-0.006 5.873 0 11.524 2.264 15.781 6.335l96.689 92.545 11.667-12.193c-61.644-73.173-98.853-167.577-98.853-270.522 0-152.752 81.879-286.726 204.044-360.38l-52.728-98.198c-5.967-11.104-1.795-24.94 9.308-30.901 3.435-1.844 7.133-2.72 10.781-2.72 8.131 0 16.006 4.361 20.123 12.029l52.828 98.387c53.607-24.83 113.279-38.721 176.14-38.721s122.533 13.888 176.14 38.724l52.828-98.39c4.12-7.671 11.992-12.029 20.129-12.029 3.642 0 7.34 0.873 10.775 2.72 11.101 5.961 15.275 19.797 9.308 30.901l-52.728 98.198c122.161 73.654 204.044 207.625 204.044 360.38 0 102.945-37.209 197.349-98.853 270.522l11.667 12.19 96.689-92.542c4.251-4.071 9.908-6.335 15.781-6.335 0.167 0 0.332 0.003 0.499 0.006 6.055 0.131 11.804 2.663 15.988 7.038 68.423 71.5 65.934 185.342-5.562 253.771zM68.332 687.135c-35.691 53.002-29.17 125.755 18.525 171.405 25.031 23.954 57.886 37.148 92.523 37.148 29.133 0 56.693-9.156 79.551-26.136l-190.6-182.417zM886.849 446.862c0-206.697-168.158-374.855-374.849-374.855s-374.852 168.161-374.852 374.855c0 206.691 168.158 374.846 374.852 374.846s374.849-168.155 374.849-374.846zM955.662 687.132l-190.594 182.42c22.858 16.98 50.415 26.136 79.551 26.136 34.638 0 67.498-13.194 92.523-37.148 47.698-45.65 54.213-118.403 18.519-171.408z" />
<glyph unicode="&#xe904;" glyph-name="american-fooball-ball" d="M691.125 660.923l-40.747-40.75-33.423 33.423c-9.262 9.256-24.271 9.256-33.527-0.006-9.259-9.256-9.259-24.271 0.003-33.524l33.419-33.419-58.854-58.851-33.416 33.419c-9.259 9.262-24.271 9.262-33.53 0.006-9.256-9.262-9.259-24.271 0-33.53l33.419-33.419-58.86-58.863-33.423 33.426c-9.256 9.256-24.268 9.256-33.527 0-9.262-9.262-9.262-24.271 0-33.53l33.419-33.426-58.857-58.851-33.426 33.426c-9.256 9.256-24.271 9.256-33.524 0-9.262-9.262-9.262-24.271 0-33.53l33.419-33.426-40.737-40.737c-9.262-9.262-9.262-24.271 0-33.53 4.628-4.631 10.694-6.945 16.763-6.945 6.066 0 12.136 2.314 16.763 6.945l40.744 40.737 33.426-33.419c4.628-4.631 10.694-6.945 16.763-6.945s12.136 2.314 16.763 6.945c9.262 9.262 9.262 24.271 0 33.53l-33.419 33.419 58.854 58.857 33.423-33.426c4.631-4.631 10.7-6.945 16.767-6.945s12.136 2.314 16.767 6.945c9.259 9.262 9.259 24.271 0 33.53l-33.426 33.419 58.863 58.863 33.419-33.426c4.631-4.631 10.7-6.945 16.767-6.945s12.136 2.314 16.767 6.945c9.256 9.256 9.259 24.271 0 33.524l-33.426 33.426 58.857 58.857 33.419-33.419c4.631-4.631 10.7-6.945 16.767-6.945s12.136 2.314 16.767 6.945c9.259 9.262 9.256 24.271 0 33.53l-33.423 33.413 40.747 40.75c9.259 9.262 9.259 24.271 0 33.53-9.268 9.253-24.281 9.253-33.543-0.003zM975.167 911.429c-32.028 32.038-87.101 48.277-163.695 48.277-33.141 0-70.885-3.006-112.175-8.946-145.339-20.892-306.805-110.984-443.005-247.177-136.168-136.178-226.254-297.616-247.158-442.936-20.035-139.194-7.179-229.459 39.312-275.943 32.575-32.575 85.843-48.409 162.854-48.409 0 0 0.006 0 0.009 0 33.027 0 71.046 3.057 113.010 9.088 145.345 20.898 306.812 110.99 442.999 247.177 136.162 136.162 226.251 297.603 247.165 442.933 12.774 88.808 22.599 214.030-39.315 275.937zM317.566-7.682c-39.732-5.712-75.484-8.608-106.258-8.608-0.006 0-0.009 0-0.013 0-62.906 0-106.419 11.614-129.328 34.526-34.7 34.7-43.415 113.987-25.902 235.658 2.867 19.931 7.29 40.361 13.103 61.111 56.995-40.971 113.231-89.049 167.495-143.312 53.843-53.843 101.639-109.628 142.408-166.167-20.886-5.873-41.449-10.324-61.506-13.207zM733.787 226.093c-93.835-93.841-203.114-165.965-307.555-205.071-44.11 62.802-96.541 124.703-156.042 184.198-59.925 59.932-122.278 112.681-185.542 156.994 39.081 104.519 111.256 213.919 205.176 307.846 94.555 94.549 204.793 167.078 309.951 205.966 43.99-62.505 96.202-124.112 155.413-183.32 59.666-59.672 121.728-112.169 184.688-156.346-38.866-105.265-111.445-215.633-206.089-310.267zM967.542 642.248c-2.747-19.115-6.945-38.692-12.411-58.563-56.622 40.794-112.485 88.612-166.414 142.551-53.492 53.486-100.982 108.91-141.58 165.096 19.991 5.51 39.685 9.733 58.907 12.496 39.065 5.617 74.536 8.465 105.43 8.465 62.663 0 107.674-11.886 130.165-34.383 35.183-35.19 43.661-112.273 25.902-235.661z" />
<glyph unicode="&#xe905;" glyph-name="american-football-helmet" d="M210.364 588.94c-2.483 0-5.006 0.403-7.489 1.255-12.056 4.135-18.48 17.259-14.339 29.314 48.552 141.535 183.675 236.627 336.238 236.627 50.681-0.006 99.611-10.256 145.443-30.465 44.672-19.69 84.088-47.755 117.147-83.405 8.665-9.345 8.12-23.945-1.225-32.613s-23.948-8.117-32.616 1.228c-28.758 31.007-63.047 55.42-101.925 72.555-39.936 17.61-82.605 26.539-126.824 26.545-132.846 0-250.427-82.565-292.585-205.45-3.283-9.569-12.237-15.591-21.825-15.591zM617.604 227.111c-51.703 0-93.771 42.066-93.771 93.768s42.069 93.768 93.771 93.768 93.765-42.066 93.765-93.768c0-51.703-42.062-93.768-93.765-93.768zM617.604 368.489c-26.256 0-47.616-21.357-47.616-47.613 0-26.253 21.357-47.613 47.616-47.613 26.25 0 47.61 21.357 47.61 47.613s-21.36 47.613-47.61 47.613zM1024 468.294c0 263.572-219.054 478.004-488.309 478.004s-488.315-214.429-488.315-478.004c0-10.699 7.357-20 17.77-22.459 1.671-0.394 10.693-2.36 24.567-2.36 22.49 0 56.475 5.163 90.67 29.754 15.216 10.942 31.376 17.659 47.339 19.908l6.603-173.582-216.66-52.287c-11.449-2.763-18.985-13.714-17.471-25.397l35.235-272.080c1.437-11.077 10.594-19.536 21.742-20.087 0.548-0.028 105.135 0 168.53 57.161 38.312 34.548 58.69 82.909 61.198 143.052 0.025 0.612-0.637 18.647-0.637 18.647l67.946 6.828c12.591-23.631 29.887-46.823 53.644-69.131 35.668-33.499 88.186-52.712 144.089-52.712 0.006 0 0.006 0 0.006 0 53.835 0 104.018 17.071 141.308 48.063 41.232 34.281 85.411 68.063 133.289 73.808l83.282-34.422c2.862-1.185 5.852-1.751 8.803-1.751 7.523 0 14.81 3.689 19.2 10.265l76.888 115.156c2.831 4.234 4.175 9.283 3.834 14.363l-5.834 86.943c7.468 33.484 11.283 67.881 11.283 102.319zM53.253 191.538l-4.628 35.718 187.493 45.25 2.372-62.358-185.238-18.61zM194.813 41.159c-36.881-34.533-88.793-42.709-116.289-44.776l-19.339 149.36 181.068 18.194c-0.003 0.003 2.139-78.226-45.441-122.778zM274.178 485.975c8.24-4.055 15.84-9.579 22.484-16.45 18.487-19.099 28.102-46.644 27.081-77.562-0.157-4.628-0.323-9.286-0.492-13.97-0.446-12.206-0.889-24.647-1.089-37.241l-42.062-10.154-5.92 155.376zM284.501 214.778l-2.615 68.777 41.185 9.939c1.563-24.401 5.24-49.072 12.723-73.562l-51.293-5.154zM663.752 137.106c-28.601-23.77-69.352-37.401-111.805-37.401-44.293 0-85.297 14.656-112.504 40.201-76.079 71.435-73.023 155.305-70.072 236.408 0.169 4.739 0.342 9.446 0.498 14.13 1.437 43.524-12.782 83.008-40.038 111.178-24.074 24.881-56.198 38.582-90.451 38.582-29.388 0-59.106-10.203-85.946-29.502-22.074-15.874-43.804-20.317-59.364-20.976 11.468 228.214 205.167 410.415 441.622 410.415 243.808 0 442.154-193.727 442.154-431.849 0-30.074-3.197-60.118-9.508-89.399l-149.252-157.893c-59.549-7.899-111.252-47.247-155.332-83.894zM909.961 190.888l-40.152 16.594 100.177 105.965 1.994-29.678-62.020-92.882z" />
<glyph unicode="&#xe906;" glyph-name="apartment" d="M716.8 652.8h51.2v-51.2h-51.2v51.2zM716.8 550.4h51.2v-51.2h-51.2v51.2zM716.8 448h51.2v-51.2h-51.2v51.2zM716.8 345.6h51.2v-51.2h-51.2v51.2zM716.8 140.8h51.2v-51.2h-51.2v51.2zM716.8 243.2h51.2v-51.2h-51.2v51.2zM307.2 652.8h51.2v-51.2h-51.2v51.2zM307.2 550.4h51.2v-51.2h-51.2v51.2zM307.2 448h51.2v-51.2h-51.2v51.2zM307.2 345.6h51.2v-51.2h-51.2v51.2zM307.2 140.8h51.2v-51.2h-51.2v51.2zM307.2 243.2h51.2v-51.2h-51.2v51.2zM204.8 652.8h51.2v-51.2h-51.2v51.2zM204.8 550.4h51.2v-51.2h-51.2v51.2zM204.8 448h51.2v-51.2h-51.2v51.2zM204.8 345.6h51.2v-51.2h-51.2v51.2zM204.8 140.8h51.2v-51.2h-51.2v51.2zM204.8 243.2h51.2v-51.2h-51.2v51.2zM409.6 652.8h51.2v-51.2h-51.2v51.2zM409.6 550.4h51.2v-51.2h-51.2v51.2zM409.6 448h51.2v-51.2h-51.2v51.2zM409.6 345.6h51.2v-51.2h-51.2v51.2zM409.6 140.8h51.2v-51.2h-51.2v51.2zM409.6 243.2h51.2v-51.2h-51.2v51.2zM947.2-12.8h-25.6v691.2c0 39.066-29.030 79.309-66.099 91.699l-241.101 80.384v83.968c0 8.090-3.84 15.718-10.342 20.531s-14.899 6.298-22.63 3.994l-462.95-138.906c-37.734-11.315-67.277-51.046-67.277-90.419v-742.4h-25.6c-14.131 0-25.6-11.469-25.6-25.6s11.469-25.6 25.6-25.6h921.6c14.131 0 25.6 11.469 25.6 25.6s-11.469 25.6-25.6 25.6zM839.322 721.51c16.282-5.427 31.078-25.958 31.078-43.11v-691.2h-256v809.267l224.922-74.957zM102.4 729.6c0 16.845 14.694 36.557 30.822 41.37l429.978 129.024v-912.794h-460.8v742.4z" />
<glyph unicode="&#xe907;" glyph-name="apple-with-leaf" d="M195.792 235.504c-9.985 0-19.252 6.402-22.428 16.425-37.732 118.957-22.986 239.994 36.696 301.186 9.078 9.307 23.978 9.499 33.279 0.417 9.307-9.078 9.493-23.978 0.417-33.279-47.149-48.342-57.646-152.829-25.528-254.094 3.929-12.389-2.931-25.619-15.317-29.551-2.366-0.747-4.767-1.105-7.12-1.105zM898.095 612.615c-97.835 100.314-202.052 102.018-272.25 85.788-39.439-9.119-72.357-24.656-95.017-37.578-2.087 11.168-4.804 22.076-8.037 32.73 2.385-0.182 4.792-0.292 7.246-0.292 26.724 0 57.401 10.936 91.185 32.507 37.691 24.072 79.876 61.468 110.101 97.596 40.92 48.919 53.271 86.874 36.706 112.81-10.101 15.806-28.839 23.824-55.7 23.824-56.111 0-144.19-34.839-196.937-68.519-34.537-22.060-54.721-43.879-65.598-64.267-27.442 34.311-56.62 61.876-79.596 81.275-9.935 8.388-24.784 7.126-33.166-2.805-8.385-9.932-7.13-24.784 2.805-33.166 45.555-38.454 118.113-111.99 141.397-205.178-21.684 11.319-50.105 23.438-83.080 31.060-70.198 16.233-174.412 14.523-272.25-85.788-52.813-54.153-78.727-142.21-72.953-247.959 5.429-99.532 38.943-201.459 91.948-279.647 66.432-97.989 154.577-149.016 251.969-149.010 37.264 0.003 75.89 7.484 115.157 22.657 39.257-15.16 77.858-22.66 115.113-22.657 97.38 0.003 185.54 51.034 251.966 149.010 53.008 78.187 86.522 180.117 91.954 279.647 5.761 105.749-20.143 193.809-72.963 247.962zM540.732 851.81c51.878 33.131 130.461 61.12 171.598 61.12 9.621 0 14.134-1.541 15.784-2.306 0.182-5.834-5.956-26.2-37.547-62.497-26.84-30.841-63.119-62.522-94.684-82.681-25.723-16.428-48.495-25.111-65.849-25.111-7.246 0-13.603 1.509-19.271 4.604l72.015 44.981c11.024 6.885 14.382 21.405 7.494 32.432-6.882 11.027-21.408 14.382-32.429 7.494l-71.538-44.686c0.104 16.152 10.876 38.836 54.426 66.652zM924.050 367.224c-4.977-91.245-35.56-184.479-83.911-255.798-47.064-69.429-151.109-175.492-319.111-105.702-0.009 0.003-0.019 0.006-0.031 0.009-0.932 0.386-10.186 3.624-18.025-0.009-165.023-76.54-272.046 36.273-319.114 105.702-48.345 71.318-78.931 164.553-83.911 255.798-4.971 91.097 16.776 168.563 59.654 212.53 65.849 67.518 142.009 92.133 226.375 73.151 64.87-14.589 110.958-50.497 111.419-50.858 8.567-6.775 20.382-6.618 28.729-0.342 0.163 0.11 47.036 36.612 111.903 51.2 84.36 18.976 160.523-5.633 226.372-73.151 42.881-43.97 64.622-121.433 59.651-212.53z" />
<glyph unicode="&#xe908;" glyph-name="application-documents" d="M728.624-64h-648.494c-13.957 0-25.273 11.316-25.273 25.273v778.19c0 13.957 11.316 25.273 25.273 25.273h648.491c13.957 0 25.273-11.316 25.273-25.273v-49.806h63.927c13.957 0 25.273-11.316 25.273-25.273s-11.316-25.273-25.273-25.273h-63.927v-65.121h31.622c13.957 0 25.273-11.316 25.273-25.273s-11.316-25.273-25.273-25.273h-31.622v-65.124h63.927c13.957 0 25.273-11.316 25.273-25.273s-11.316-25.273-25.273-25.273h-63.927v-65.118h31.622c13.957 0 25.273-11.316 25.273-25.273s-11.316-25.273-25.273-25.273h-31.622v-330.84c0.003-13.957-11.313-25.273-25.269-25.273zM105.402-13.455h597.946v727.644h-597.946v-727.644zM525.344 33.644c-65.001 0-117.884 52.88-117.884 117.878s52.883 117.878 117.884 117.878c64.995 0 117.874-52.88 117.874-117.878s-52.88-117.878-117.874-117.878zM525.344 218.854c-37.132 0-67.339-30.207-67.339-67.332s30.207-67.332 67.339-67.332c37.125 0 67.329 30.207 67.329 67.332s-30.204 67.332-67.329 67.332zM943.87 131.265h-115.638c-13.957 0-25.273 11.316-25.273 25.273s11.316 25.273 25.273 25.273h90.365v727.644h-597.946v-79.947c0-13.957-11.316-25.273-25.273-25.273s-25.273 11.316-25.273 25.273v105.219c0 13.957 11.316 25.273 25.273 25.273h648.488c13.957 0 25.273-11.316 25.273-25.273v-778.19c0.003-13.957-11.316-25.273-25.269-25.273zM332.277 216.813h-123.099c-13.957 0-25.273 11.316-25.273 25.273s11.316 25.273 25.273 25.273h123.099c13.957 0 25.273-11.316 25.273-25.273s-11.316-25.273-25.273-25.273zM599.576 328.685h-390.398c-13.957 0-25.273 11.316-25.273 25.273s11.316 25.273 25.273 25.273h390.398c13.957 0 25.273-11.316 25.273-25.273s-11.316-25.273-25.273-25.273zM599.576 440.557h-390.398c-13.957 0-25.273 11.316-25.273 25.273s11.316 25.273 25.273 25.273h390.398c13.957 0 25.273-11.316 25.273-25.273s-11.316-25.273-25.273-25.273zM332.277 552.429h-123.099c-13.957 0-25.273 11.316-25.273 25.273s11.316 25.273 25.273 25.273h123.099c13.957 0 25.273-11.316 25.273-25.273s-11.316-25.273-25.273-25.273z" />
<glyph unicode="&#xe909;" glyph-name="arrow-down" d="M504.525-30.925l307.2 307.2c9.984 9.984 9.984 26.214 0 36.198s-26.214 9.984-36.198 0l-263.475-263.475v834.202c0 14.131-11.469 25.6-25.6 25.6s-25.6-11.469-25.6-25.6v-834.202l-263.475 263.475c-9.984 9.984-26.214 9.984-36.198 0-5.018-5.018-7.475-11.571-7.475-18.125s2.509-13.107 7.475-18.125l307.2-307.2c9.984-9.984 26.214-9.984 36.198 0z" />
<glyph unicode="&#xe90a;" glyph-name="arrow-down-circle" d="M830.362 78.438c91.853 91.853 142.438 214.016 142.438 343.962s-50.586 252.058-142.438 343.91-214.016 142.438-343.962 142.438-252.058-50.586-343.962-142.438-142.438-214.016-142.438-343.91 50.586-252.058 142.438-343.962 214.016-142.438 343.962-142.438 252.058 50.586 343.962 142.438zM51.2 422.4c0 239.974 195.226 435.2 435.2 435.2s435.2-195.226 435.2-435.2c0-239.974-195.226-435.2-435.2-435.2s-435.2 195.226-435.2 435.2zM504.474 122.726l204.8 204.8c9.984 9.984 9.984 26.214 0 36.198s-26.214 9.984-36.198 0l-161.075-161.126v527.002c0 14.131-11.469 25.6-25.6 25.6s-25.6-11.469-25.6-25.6v-527.002l-161.126 161.075c-9.984 9.984-26.214 9.984-36.198 0-5.018-5.018-7.475-11.571-7.475-18.074s2.509-13.107 7.526-18.074l204.8-204.8c9.984-9.984 26.214-9.984 36.198 0z" />
<glyph unicode="&#xe90b;" glyph-name="arrow-left" d="M33.075 440.525l307.2 307.2c9.984 9.984 26.214 9.984 36.198 0s9.984-26.214 0-36.198l-263.475-263.475h834.202c14.131 0 25.6-11.469 25.6-25.6s-11.469-25.6-25.6-25.6h-834.202l263.475-263.475c9.984-9.984 9.984-26.214 0-36.198-5.018-5.018-11.571-7.475-18.125-7.475s-13.107 2.509-18.125 7.475l-307.2 307.2c-9.984 9.984-9.984 26.214 0 36.198z" />
<glyph unicode="&#xe90c;" glyph-name="arrow-left-circle" d="M142.438 766.362c91.853 91.853 214.016 142.438 343.962 142.438s252.058-50.586 343.962-142.438 142.438-214.016 142.438-343.91-50.586-252.058-142.438-343.962-214.016-142.438-343.962-142.438-252.058 50.586-343.962 142.438-142.438 214.016-142.438 343.962 50.586 252.058 142.438 343.91zM486.4-12.8c239.974 0 435.2 195.226 435.2 435.2s-195.226 435.2-435.2 435.2c-239.974 0-435.2-195.226-435.2-435.2s195.226-435.2 435.2-435.2zM186.726 440.474l204.8 204.8c9.984 9.984 26.214 9.984 36.198 0s9.984-26.214 0-36.198l-161.126-161.075h527.002c14.131 0 25.6-11.469 25.6-25.6s-11.469-25.6-25.6-25.6h-527.002l161.075-161.126c9.984-9.984 9.984-26.214 0-36.198-5.018-5.018-11.571-7.475-18.074-7.475s-13.107 2.509-18.074 7.526l-204.8 204.8c-9.984 9.984-9.984 26.214 0 36.198z" />
<glyph unicode="&#xe90d;" glyph-name="arrow-right" d="M990.925 440.525l-307.2 307.2c-9.984 9.984-26.214 9.984-36.198 0s-9.984-26.214 0-36.198l263.475-263.475h-834.202c-14.131 0-25.6-11.469-25.6-25.6s11.469-25.6 25.6-25.6h834.202l-263.475-263.475c-9.984-9.984-9.984-26.214 0-36.198 5.018-5.018 11.571-7.475 18.125-7.475s13.107 2.509 18.125 7.475l307.2 307.2c9.984 9.984 9.984 26.214 0 36.198z" />
<glyph unicode="&#xe90e;" glyph-name="arrow-right-circle" d="M830.362 766.362c-91.853 91.853-214.016 142.438-343.962 142.438s-252.058-50.586-343.962-142.438-142.438-214.016-142.438-343.91 50.586-252.058 142.438-343.962 214.016-142.438 343.962-142.438 252.058 50.586 343.962 142.438 142.438 214.016 142.438 343.962-50.586 252.058-142.438 343.91zM486.4-12.8c-239.974 0-435.2 195.226-435.2 435.2s195.226 435.2 435.2 435.2c239.974 0 435.2-195.226 435.2-435.2s-195.226-435.2-435.2-435.2zM786.074 440.474l-204.8 204.8c-9.984 9.984-26.214 9.984-36.198 0s-9.984-26.214 0-36.198l161.126-161.075h-527.002c-14.131 0-25.6-11.469-25.6-25.6s11.469-25.6 25.6-25.6h527.002l-161.075-161.126c-9.984-9.984-9.984-26.214 0-36.198 5.018-5.018 11.571-7.475 18.074-7.475s13.107 2.509 18.074 7.526l204.8 204.8c9.984 9.984 9.984 26.214 0 36.198z" />
<glyph unicode="&#xe90f;" glyph-name="arrow-up" d="M468.275 926.925l-307.2-307.2c-9.984-9.984-9.984-26.214 0-36.198s26.214-9.984 36.198 0l263.475 263.475v-834.202c0-14.131 11.469-25.6 25.6-25.6s25.6 11.469 25.6 25.6v834.202l263.475-263.475c9.984-9.984 26.214-9.984 36.198 0 5.018 5.018 7.475 11.571 7.475 18.125s-2.509 13.107-7.475 18.125l-307.2 307.2c-9.984 9.984-26.214 9.984-36.198 0z" />
<glyph unicode="&#xe910;" glyph-name="arrow-up-circle" d="M142.438 766.362c-91.853-91.853-142.438-214.016-142.438-343.962s50.586-252.058 142.438-343.962 214.016-142.438 343.962-142.438 252.058 50.586 343.962 142.438 142.438 214.016 142.438 343.91-50.586 252.058-142.438 343.962-214.016 142.438-343.962 142.438-252.058-50.586-343.962-142.438zM921.6 422.4c0-239.974-195.226-435.2-435.2-435.2s-435.2 195.226-435.2 435.2c0 239.974 195.226 435.2 435.2 435.2s435.2-195.226 435.2-435.2zM468.326 722.074l-204.8-204.8c-9.984-9.984-9.984-26.214 0-36.198s26.214-9.984 36.198 0l161.075 161.126v-527.002c0-14.131 11.469-25.6 25.6-25.6s25.6 11.469 25.6 25.6v527.002l161.126-161.075c9.984-9.984 26.214-9.984 36.198 0 5.018 5.018 7.475 11.571 7.475 18.074s-2.509 13.107-7.526 18.074l-204.8 204.8c-9.984 9.984-26.214 9.984-36.198 0z" />
<glyph unicode="&#xe911;" glyph-name="Bascketball" d="M512-64c-282.304 0-512 229.696-512 512s229.696 512 512 512 512-229.696 512-512-229.696-512-512-512zM512 896c-247.040 0-448-200.96-448-448s200.96-448 448-448 448 200.96 448 448-200.96 448-448 448zM544 64h-64c0 194.080-157.92 352-352 352v64c229.376 0 416-186.624 416-416zM896 416c-229.376 0-416 186.624-416 416h64c0-194.080 157.92-352 352-352v-64zM294.624 710.624l480-480-45.248-45.248-480 480 45.248 45.248zM729.376 710.624l45.248-45.248-480-480-45.248 45.248 480 480z" />
<glyph unicode="&#xe912;" glyph-name="basketball-hoop" d="M670.394 411.354h-316.783c-12.629 0-22.862 10.233-22.862 22.862v230.815c0 12.629 10.233 22.862 22.862 22.862h316.783c12.629 0 22.862-10.233 22.862-22.862v-230.818c0-12.626-10.236-22.859-22.862-22.859zM376.474 457.078h271.058v185.094h-271.058v-185.094zM969.143 960h-914.287c-12.629 0-22.862-10.233-22.862-22.862v-655.772c0-12.629 10.233-22.862 22.862-22.862h273.439c18.116-63.188 35.204-159.827 35.204-299.642 0-12.629 10.233-22.862 22.862-22.862s22.862 10.233 22.862 22.862c0 9.014-0.070 17.845-0.207 26.523h34.854l0.942-27.309c0.424-12.352 10.568-22.076 22.832-22.076 0.262 0 0.53 0.003 0.799 0.015 12.623 0.433 22.499 11.013 22.063 23.633l-0.887 25.737h47.428l-0.707-25.895c-0.351-12.623 9.602-23.136 22.225-23.481 0.213-0.006 0.424-0.009 0.637-0.009 12.336 0 22.505 9.828 22.844 22.234l0.744 27.151h32.202c-0.137-8.681-0.213-17.509-0.213-26.523 0-12.629 10.233-22.862 22.862-22.862s22.862 10.233 22.862 22.862c0 139.257 17.32 236.159 35.561 299.642h273.083c12.629 0 22.862 10.233 22.862 22.862v655.772c-0.003 12.629-10.239 22.862-22.865 22.862zM637.763 213.192h-48.714l1.244 45.313h58.124c-3.688-13.818-7.279-28.916-10.654-45.313zM623.442 122.149h-36.899l1.244 45.319h41.74c-2.225-14.296-4.274-29.394-6.084-45.319zM394.477 167.468h43.133l1.561-45.319h-38.616c-1.808 15.924-3.85 31.022-6.078 45.319zM483.358 167.468h58.691l-1.244-45.319h-55.887l-1.561 45.319zM545.808 304.228h-67.144l-1.555 45.313h69.943l-1.244-45.313zM480.234 258.504h64.319l-1.244-45.313h-61.514l-1.561 45.313zM386.244 213.192c-3.374 16.397-6.965 31.495-10.657 45.313h58.899l1.561-45.313h-49.803zM361.62 304.228c-6.417 18.415-12.711 33.418-18.326 45.313h88.068l1.561-45.313h-71.302zM407.652 31.109c-0.707 15.711-1.637 30.8-2.75 45.313h35.842l1.555-45.313h-34.647zM488.044 31.109l-1.555 45.313h53.058l-1.25-45.313h-50.254zM584.043 31.109l1.244 45.313h33.818c-1.119-14.513-2.048-29.602-2.75-45.313h-32.312zM662.387 304.228h-70.836l1.244 45.313h87.918c-5.615-11.894-11.91-26.898-18.326-45.313zM946.281 304.228h-235.016c14.409 37.43 26.328 53.848 26.596 54.201 5.328 6.901 6.27 16.229 2.423 24.054-3.841 7.825-11.8 12.781-20.515 12.781h-415.531c-8.715 0-16.677-4.956-20.515-12.781-3.847-7.822-2.905-17.153 2.423-24.054 0.305-0.393 12.394-16.598 26.928-54.201h-235.357v610.048h868.563v-610.048z" />
<glyph unicode="&#xe913;" glyph-name="bicycle" d="M281.6 499.098c-42.394 0-76.902 34.509-76.902 76.902s34.509 76.902 76.902 76.902 76.902-34.509 76.902-76.902-34.509-76.902-76.902-76.902zM281.6 601.702c-14.182 0-25.702-11.52-25.702-25.702s11.52-25.702 25.702-25.702 25.702 11.52 25.702 25.702-11.52 25.702-25.702 25.702zM486.4 89.6c-14.131 0-25.6 11.469-25.6 25.6v153.498c0 39.526 29.747 79.002 67.789 89.907l76.8 21.965-166.912 111.258-87.552-87.552c-4.813-4.813-11.315-7.475-18.125-7.475h-102.502c-14.131 0-25.6 11.469-25.6 25.6s11.469 25.6 25.6 25.6h91.904l94.925 94.925c8.653 8.653 22.17 9.984 32.307 3.226l187.802-125.184c28.16-18.79 28.058-40.806 26.726-49.459s-7.987-29.645-40.499-38.963l-80.742-23.142c-16.026-4.608-30.669-23.962-30.669-40.704v-153.498c0-14.131-11.469-25.6-25.6-25.6zM768-64c-112.947 0-204.8 91.853-204.8 204.8s91.853 204.8 204.8 204.8 204.8-91.853 204.8-204.8-91.853-204.8-204.8-204.8zM768 294.4c-84.685 0-153.6-68.915-153.6-153.6s68.915-153.6 153.6-153.6 153.6 68.915 153.6 153.6-68.915 153.6-153.6 153.6zM204.749-64c-112.896 0-204.749 91.853-204.749 204.749s91.853 204.749 204.749 204.749 204.749-91.853 204.749-204.749-91.853-204.749-204.749-204.749zM204.749 294.298c-84.685 0-153.549-68.864-153.549-153.549s68.864-153.549 153.549-153.549 153.549 68.864 153.549 153.549-68.864 153.549-153.549 153.549z" />
<glyph unicode="&#xe914;" glyph-name="big-backpack" d="M941.336 245.045c-4.023 91.101-20.998 313.908-91.651 429.022-12.178 47.337-46.193 90.531-98.773 124.372-29.329 18.876-63.031 33.816-99.532 44.529v16.316c-0.003 55.534-45.185 100.716-100.719 100.716h-77.013c-55.54 0-100.716-45.182-100.716-100.716v-16.316c-36.507-10.713-70.203-25.652-99.532-44.529-52.273-33.646-86.207-76.527-98.569-123.54-71.074-114.86-88.13-338.527-92.167-429.854-2.89-65.515 10.23-112.934 38.989-140.934 16.003-15.579 33.687-22.093 47.937-24.63v-19.041c0-81.695 172.332-124.436 342.567-124.436 170.233 0 342.562 42.744 342.562 124.436v19.108c14.222 2.585 31.878 9.155 47.809 24.745 28.637 28.023 41.695 75.382 38.808 140.753zM169.59 122.59c-6.036 2.049-12.592 5.562-18.72 11.528-19.56 19.038-28.676 56.76-26.364 109.078 5.383 121.859 21.431 230.332 45.084 311.066v-431.672zM414.811 859.284c0 32.442 26.392 58.837 58.837 58.837h77.013c32.439 0 58.837-26.395 58.837-58.837v-6.103c-31.214 6.067-63.924 9.219-97.341 9.219-33.422 0-66.135-3.152-97.346-9.222v6.106zM812.841 60.436c0-13.745-24.636-35.539-79.676-53.251-58.728-18.901-137.215-29.307-221.007-29.307-83.794 0-162.281 10.408-221.009 29.307-55.043 17.712-79.679 39.506-79.679 53.251v272.283h601.374v-272.283zM727.223 374.599h-430.142v231.535c0 33.204 21.141 65.094 59.521 89.797 41.237 26.54 96.484 41.156 155.555 41.156s114.31-14.616 155.55-41.156c38.381-24.703 59.516-56.592 59.516-89.797v-231.535zM812.841 374.599h-43.738v231.535c0 47.94-27.961 92.335-78.73 125.012-47.915 30.837-111.205 47.82-178.215 47.82s-130.302-16.983-178.22-47.82c-50.774-32.674-78.735-77.071-78.735-125.012v-231.535h-43.733v259.862c0 47.924 30.041 93.653 84.598 128.761 57.408 36.946 134.15 57.293 216.090 57.293 81.938 0 158.682-20.348 216.087-57.293 54.549-35.109 84.596-80.838 84.596-128.761v-259.862zM873.238 134.222c-6.053-5.922-12.533-9.437-18.519-11.517v430.516c23.486-80.625 39.419-188.693 44.777-310.025 2.309-52.223-6.773-89.906-26.258-108.975zM748.163 284.472h-472.021c-11.561 0-20.939-9.373-20.939-20.939s9.378-20.939 20.939-20.939h384.262v-45.788c0-11.567 9.373-20.939 20.939-20.939 11.564 0 20.939 9.373 20.939 20.939v45.788h45.883c11.567 0 20.939 9.373 20.939 20.939-0.003 11.567-9.375 20.939-20.942 20.939z" />
<glyph unicode="&#xe915;" glyph-name="big-basket-ball" d="M512.003 960c-282.321 0-512.003-229.683-512.003-512s229.683-512 512.003-512c282.317 0 511.997 229.683 511.997 512s-229.683 512-511.997 512zM154.547 744.763c9.562-11.51 18.511-23.432 26.862-35.707-28.108-35.521-50.596-75.579-66.089-118.759-4.399-12.265 1.979-25.779 14.244-30.181 2.634-0.944 5.321-1.391 7.967-1.391 9.682 0 18.759 6 22.214 15.638 11.718 32.654 27.938 63.301 47.912 91.164 31.597-59.579 49.954-125.606 53.399-193.926h-213.264c5.207 103.539 44.457 198.252 106.755 273.161zM47.792 424.401h213.261c-5.053-100.411-42.28-195.908-106.484-273.193-62.307 74.915-101.569 169.635-106.777 273.193zM488.404-16.208c-117.132 5.887-222.949 55.357-301.59 132.452 73.742 86.582 116.317 194.574 121.506 308.157h180.081v-440.609zM488.404 471.599h-180.084c-3.779 82.687-27.394 162.407-68.402 233.068 34.089 36.125 75.305 65.57 121.421 85.884 11.925 5.252 17.337 19.181 12.083 31.11s-19.184 17.344-31.11 12.083c-48.34-21.296-91.888-51.499-128.645-88.392-8.433 11.796-17.381 23.278-26.855 34.404 78.638 77.096 184.458 126.568 301.593 132.455v-440.612zM976.208 471.599h-213.258c5.063 100.399 42.311 195.873 106.516 273.152 62.288-74.909 101.541-169.613 106.742-273.152zM535.602 912.208c117.135-5.887 222.955-55.36 301.599-132.462-73.748-86.579-116.323-194.564-121.515-308.15h-180.081v440.612zM535.602-16.208v440.609h180.078c5.182-113.589 47.761-221.583 121.499-308.166-78.638-77.089-184.455-126.556-301.577-132.443zM869.437 151.221c-64.205 77.281-101.437 172.772-106.49 273.18h213.258c-5.198-103.552-44.463-198.268-106.767-273.18z" />
<glyph unicode="&#xe916;" glyph-name="big-book-with-bookmark" d="M875.331 814.669c-17.718 0-32.131 14.415-32.131 32.131v24.566c0 17.716 14.413 32.131 32.131 32.131 15.603 0 28.252 12.649 28.252 28.252s-12.649 28.252-28.252 28.252c-0.002 0-0.002 0-0.002 0h-662.255c-51.091 0-92.657-41.562-92.657-92.654v-675.709c0-51.086 41.562-92.654 92.655-92.654h24.604v-134.733c0-10.213 5.513-19.63 14.415-24.628 4.302-2.418 9.074-3.622 13.836-3.622 5.097 0 10.19 1.38 14.697 4.124l87.838 53.584 87.97-53.584c4.508-2.746 9.601-4.124 14.697-4.124 4.762 0 9.536 1.205 13.836 3.622 8.903 4.998 14.413 14.415 14.413 24.628v134.733h375.942c15.604 0 28.252 12.649 28.252 28.252v659.136c0 0.018 0.005 0.033 0.005 0.047 0.005 15.599-12.644 28.25-28.247 28.25zM176.919 867.346c0 19.931 16.218 36.15 36.153 36.15h579.676c-3.892-9.967-6.050-20.803-6.050-32.131v-24.564c0-11.331 2.158-22.163 6.050-32.131h-615.829v52.676zM442.882 14.542l-59.653 36.335c-9.080 5.533-20.042 4.906-28.674 0-0.047-0.018-60.378-36.335-60.378-36.335v84.442h148.701v-84.442h0.003zM847.076 155.486h-634.003c-19.935 0-36.15 16.218-36.15 36.15v566.531h670.156v-602.681h-0.003z" />
<glyph unicode="&#xe917;" glyph-name="big-circular-clock" d="M512 960c-282.708 0-512-229.292-512-512s229.425-512 512-512 512 229.425 512 512-229.291 512-512 512zM512-12.052c-253.863 0-458.583 206.189-458.583 458.583 0 253.863 206.189 458.583 458.583 458.583 253.863 0 458.583-206.189 458.583-458.583s-204.72-458.583-458.583-458.583zM493.304 802.821c-4.273 4.273-7.212 11.485-7.212 18.696s2.938 14.423 7.212 18.696c10.15 10.15 27.377 10.15 37.525 0 4.273-4.273 7.212-11.485 7.212-18.696s-2.938-14.423-7.212-18.696c-4.273-4.273-11.485-7.212-18.696-7.212-7.344-1.469-14.555 1.469-18.829 7.212zM343.336 789.867c4.273-4.273 7.212-11.485 7.212-18.696s-2.938-14.423-7.212-18.696-11.485-7.212-18.696-7.212-14.423 2.938-18.696 7.212c-4.273 4.273-7.212 11.485-7.212 18.696s2.938 14.423 7.212 18.696c10.017 10.15 27.245 10.15 37.393 0zM206.323 652.854c4.273-4.273 7.212-11.485 7.212-18.696s-2.938-14.423-7.212-18.696c-5.742-4.273-11.485-7.212-18.696-7.212s-14.423 2.938-18.696 7.212c-4.273 4.273-7.212 11.485-7.212 18.696s2.938 14.423 7.212 18.696c10.016 10.15 27.243 10.15 37.393 0zM164.524 446.665c0-7.212-2.938-14.423-7.212-18.696-5.742-4.273-11.485-7.212-18.696-7.212s-12.954 2.938-18.696 7.212c-4.273 5.742-7.212 11.485-7.212 18.696s2.938 14.423 7.212 18.696c10.15 10.15 27.377 10.15 37.525 0 4.141-4.273 7.079-11.485 7.079-18.696zM206.323 279.336c4.273-4.273 7.212-11.485 7.212-18.696s-2.938-14.423-7.212-18.696c-4.273-4.273-11.485-7.212-18.696-7.212s-14.423 2.938-18.696 7.212c-4.273 4.273-7.212 11.485-7.212 18.696s2.938 14.423 7.212 18.696c10.016 8.681 27.243 8.681 37.393 0zM343.336 142.323c4.273-4.273 7.212-11.485 7.212-18.696s-2.938-14.423-7.212-18.696-11.485-7.212-18.696-7.212-14.423 2.938-18.696 7.212-7.212 11.485-7.212 18.696 2.938 14.423 7.212 18.696c10.017 10.016 27.245 8.681 37.393 0zM530.83 91.844c4.273-4.273 7.212-11.485 7.212-18.696s-2.938-12.954-7.212-18.696c-4.273-5.742-11.485-7.212-18.696-7.212s-14.423 2.938-18.696 7.212c-4.273 4.273-7.212 11.485-7.212 18.696s2.938 14.423 7.212 18.696c10.016 10.016 27.243 10.016 37.393 0zM718.323 142.323c4.273-5.742 7.212-11.485 7.212-18.696s-2.938-14.423-7.212-18.696c-5.742-4.273-11.485-7.212-18.696-7.212s-12.954 2.938-18.696 7.212c-4.273 5.742-7.212 11.485-7.212 18.696s2.938 14.423 7.212 18.696c10.016 10.016 27.243 10.016 37.393 0zM855.336 279.336c4.273-5.742 7.212-11.485 7.212-18.696s-2.938-14.423-7.212-18.696c-4.273-4.273-11.485-7.212-18.696-7.212s-14.423 2.938-18.696 7.212c-4.273 4.273-7.212 11.485-7.212 18.696s2.938 14.423 7.212 18.696c10.017 8.681 27.245 8.681 37.393 0zM913.027 446.665c0-7.212-2.938-14.423-7.212-18.696s-11.485-7.212-18.696-7.212-14.423 2.938-18.696 7.212c-4.273 4.273-7.212 11.485-7.212 18.696s2.938 14.423 7.212 18.696c10.15 10.15 27.377 10.15 37.525 0 4.141-4.273 7.079-11.485 7.079-18.696zM817.811 615.329c-4.273 4.273-7.212 11.485-7.212 18.696s2.938 14.423 7.212 18.696c10.15 10.15 27.377 10.15 37.525 0 4.273-5.742 7.212-11.485 7.212-18.696s-2.938-14.423-7.212-18.696c-4.273-4.273-11.485-7.212-18.696-7.212-7.344-1.469-14.555 1.469-18.829 7.212zM718.323 789.867c4.273-4.273 7.212-11.485 7.212-18.696s-2.938-14.423-7.212-18.696c-5.742-4.273-11.485-7.212-18.696-7.212s-12.954 2.938-18.696 7.212c-4.273 4.273-7.212 11.485-7.212 18.696s2.938 14.423 7.212 18.696c10.016 10.15 27.243 10.15 37.393 0zM484.625 446.665v242.245c0 14.423 11.485 25.908 25.908 25.908s26.040-11.485 26.040-25.908v-214.869h145.694c14.423 0 25.908-11.485 25.908-25.908s-11.485-25.908-25.908-25.908h-170.267c-14.423-1.601-27.375 10.017-27.375 24.44z" />
<glyph unicode="&#xe918;" glyph-name="big-telephone" d="M367.361 866.36c-13.407 0-24.317-10.907-24.317-24.317 0-13.407 10.907-24.314 24.317-24.314s24.314 10.907 24.314 24.314c0 13.409-10.907 24.317-24.314 24.317zM715.632 960h-407.265c-50.415 0-91.428-41.016-91.428-91.428v-841.142c0-50.415 41.016-91.43 91.428-91.43h407.265c50.415 0 91.428 41.016 91.428 91.43v841.142c0 50.412-41.013 91.428-91.428 91.428zM760.725 27.43c0-24.866-20.227-45.095-45.093-45.095h-407.265c-24.866 0-45.093 20.23-45.093 45.095v98.149h497.451v-98.149zM760.725 171.914h-497.451v552.175h497.451v-552.175zM760.725 770.423h-497.451v98.149c0 24.866 20.227 45.093 45.093 45.093h407.265c24.866 0 45.093-20.23 45.093-45.093v-98.149zM576.487 865.21h-128.973c-12.795 0-23.167-10.372-23.167-23.167s10.372-23.167 23.167-23.167h128.973c12.795 0 23.167 10.372 23.167 23.167s-10.372 23.167-23.167 23.167zM487.892 30.79h48.216c12.795 0 23.167 10.372 23.167 23.167s-10.372 23.167-23.167 23.167h-48.216c-12.795 0-23.167-10.372-23.167-23.167s10.372-23.167 23.167-23.167z" />
<glyph unicode="&#xe919;" glyph-name="Book2" d="M479.968 800h64v-640h-64v640zM543.968-64h-64c0 52.928-43.072 96-96 96h-352v64h352c88.224 0 160-71.776 160-160zM543.968-64h-64c0 88.224 71.776 160 160 160h352v-64h-352c-52.928 0-96-43.072-96-96zM416.896 160h-384.928v800h352c88.224 0 160-71.776 160-160h-64c0 52.928-43.072 96-96 96h-288v-672h320.928v-64zM991.968 160h-384.864v64h320.864v672h-288c-52.928 0-96-43.072-96-96h-64c0 88.224 71.776 160 160 160h352v-800z" />
<glyph unicode="&#xe91a;" glyph-name="book" d="M910.376 960h-684.276c-79.999 0-145.076-65.086-145.076-145.089v-733.797c0-79.977 65.077-145.076 145.076-145.115h684.281c18.008 0 32.599 14.596 32.599 32.599v958.801c-0.004 18.003-14.596 32.599-32.604 32.599zM226.1 894.801h651.681v-668.611h-651.681c-29.496 0-56.953-8.871-79.877-24.054v612.775c0 44.052 35.833 79.89 79.877 79.89zM226.113 1.199c-44.057 0.022-79.894 35.868-79.894 79.916s35.833 79.881 79.877 79.881h651.681v-47.282h-651.677c-18.008 0-32.599-14.596-32.599-32.599s14.591-32.599 32.599-32.599h651.681v-47.317h-651.668zM269.301 554.891h485.399c18.008 0 32.599 14.596 32.599 32.599v160.384c0 18.003-14.591 32.599-32.599 32.599h-485.399c-18.008 0-32.599-14.596-32.599-32.599v-160.384c0-18.003 14.591-32.599 32.599-32.599zM301.9 715.275h420.2v-95.186h-420.2v95.186z" />
<glyph unicode="&#xe91b;" glyph-name="book-and-magnifying-glass" d="M997.189-64c-6.846 0-13.689 2.611-18.911 7.833l-93.871 93.867c-34.693-26.52-77.022-40.881-121.661-40.881-53.708 0-104.080 20.79-141.829 58.539-78.206 78.206-78.206 205.453-0.003 283.655h0.003c37.749 37.749 88.117 58.535 141.829 58.535s104.080-20.79 141.826-58.539c37.746-37.746 58.535-88.114 58.535-141.826 0-44.642-14.358-86.967-40.881-121.664l93.874-93.871c10.443-10.443 10.443-27.376 0-37.819-5.225-5.218-12.068-7.829-18.911-7.829zM658.737 301.193c-57.345-57.349-57.345-150.661 0-208.010 27.65-27.646 64.583-42.874 104.007-42.874s76.36 15.227 104 42.874c27.646 27.646 42.87 64.583 42.87 104.007s-15.227 76.36-42.87 104.003c-27.643 27.646-64.576 42.87-104 42.87s-76.36-15.227-104.007-42.87v0zM408.956-59.811c-3.671 0-7.351 0.756-10.808 2.283l-80.913 35.763-75.581-35.506c-8.281-3.895-17.979-3.276-25.707 1.628-7.729 4.907-12.406 13.425-12.406 22.575v116.088h-75.204c-14.769 0-26.744 11.975-26.744 26.744v823.492c0 14.769 11.975 26.744 26.744 26.744h686.246c14.769 0 26.744-11.975 26.744-26.744v-456.965c0-14.769-11.975-26.744-26.744-26.744s-26.744 11.975-26.744 26.744v430.221h-632.758v-770.004h333.532c14.769 0 26.744-11.975 26.744-26.744s-11.975-26.744-26.744-26.744h-52.913v-116.088c0-9.043-4.57-17.474-12.148-22.411-4.409-2.872-9.491-4.332-14.595-4.332zM316.894 34.364c3.684 0 7.368-0.762 10.811-2.283l54.507-24.093v75.030h-125.188v-73.977l48.5 22.782c3.597 1.695 7.482 2.541 11.369 2.541zM26.811 83.021c-14.769 0-26.744 11.975-26.744 26.744v823.492c0 14.769 11.975 26.744 26.744 26.744s26.744-11.975 26.744-26.744v-823.492c0-14.769-11.971-26.744-26.744-26.744zM623.298 632.947h-303.679c-14.769 0-26.744 11.975-26.744 26.744s11.975 26.744 26.744 26.744h303.679c14.769 0 26.744-11.975 26.744-26.744s-11.975-26.744-26.744-26.744zM526.679 743.245h-110.442c-14.769 0-26.744 11.975-26.744 26.744s11.975 26.744 26.744 26.744h110.442c14.769 0 26.744-11.975 26.744-26.744s-11.975-26.744-26.744-26.744z" />
<glyph unicode="&#xe91c;" glyph-name="book-with-bookmark" d="M910.381 960h-684.285c-79.999-0.022-145.076-65.112-145.076-145.102v-733.801c0-79.99 65.081-145.080 145.084-145.097h684.281c18.008 0 32.599 14.596 32.599 32.599v958.801c-0.004 18.003-14.596 32.599-32.604 32.599zM391.839 894.801v-165.552l-10.471 10.475c-6.111 6.116-14.405 9.549-23.054 9.549s-16.943-3.438-23.059-9.554l-10.458-10.462v165.544h67.042zM226.104 894.801h33.499v-244.251c0-18.003 14.618-32.599 32.625-32.599 8.65 0 16.943 3.434 23.059 9.554l43.035 43.057 43.048-43.061c6.111-6.116 14.405-9.549 23.054-9.549h0.017c18.008 0 32.599 14.596 32.599 32.599v244.251h420.744v-668.603h-651.69c-29.496-0.009-56.953-8.884-79.877-24.071v612.771c0 44.044 35.842 79.89 79.886 79.903zM226.113 1.199c-44.057 0.009-79.894 35.851-79.894 79.899s35.842 79.894 79.886 79.907h651.681v-47.308h-651.681c-18.008 0-32.599-14.596-32.599-32.599s14.591-32.599 32.599-32.599h651.681v-47.299h-651.673z" />
<glyph unicode="&#xe91d;" glyph-name="briefcase" d="M947.2 704h-230.4v76.8c0 42.342-34.458 76.8-76.8 76.8h-256c-42.342 0-76.8-34.458-76.8-76.8v-76.8h-230.4c-42.342 0-76.8-34.458-76.8-76.8v-563.2c0-42.342 34.458-76.8 76.8-76.8h870.4c42.342 0 76.8 34.458 76.8 76.8v563.2c0 42.342-34.458 76.8-76.8 76.8zM358.4 780.8c0 14.131 11.469 25.6 25.6 25.6h256c14.131 0 25.6-11.469 25.6-25.6v-76.8h-307.2v76.8zM76.8 652.8h870.4c14.131 0 25.6-11.469 25.6-25.6v-384h-102.4v25.6c0 14.131-11.469 25.6-25.6 25.6h-102.4c-14.131 0-25.6-11.469-25.6-25.6v-25.6h-409.6v25.6c0 14.131-11.469 25.6-25.6 25.6h-102.4c-14.131 0-25.6-11.469-25.6-25.6v-25.6h-102.4v384c0 14.131 11.469 25.6 25.6 25.6zM819.2 243.2v-51.2h-51.2v51.2h51.2zM256 243.2v-51.2h-51.2v51.2h51.2zM947.2 38.4h-870.4c-14.131 0-25.6 11.469-25.6 25.6v128h102.4v-25.6c0-14.131 11.469-25.6 25.6-25.6h102.4c14.131 0 25.6 11.469 25.6 25.6v25.6h409.6v-25.6c0-14.131 11.469-25.6 25.6-25.6h102.4c14.131 0 25.6 11.469 25.6 25.6v25.6h102.4v-128c0-14.131-11.469-25.6-25.6-25.6z" />
<glyph unicode="&#xe91e;" glyph-name="bubble" d="M25.6-12.8c-11.52 0-21.606 7.68-24.678 18.79s1.638 22.886 11.52 28.774c86.579 51.917 122.47 127.437 135.219 162.765-94.106 72.038-147.661 171.725-147.661 276.070 0 52.685 13.21 103.731 39.322 151.757 24.883 45.773 60.416 86.784 105.523 121.907 91.494 71.168 212.787 110.387 341.555 110.387s250.061-39.219 341.555-110.387c45.107-35.072 80.64-76.083 105.523-121.907 26.112-47.974 39.322-99.021 39.322-151.757s-13.21-103.731-39.322-151.757c-24.883-45.773-60.416-86.784-105.523-121.907-91.494-71.168-212.787-110.387-341.555-110.387-52.89 0-104.806 6.605-154.419 19.712-21.965-14.643-63.027-40.602-112.077-65.024-76.186-37.888-141.517-57.088-194.253-57.088zM486.4 806.4c-239.974 0-435.2-149.299-435.2-332.8 0-92.928 51.456-182.374 141.107-245.35 8.806-6.195 12.8-17.203 10.035-27.597-5.99-22.323-26.368-83.61-80.896-142.746 66.662 23.347 138.445 63.846 191.437 100.301 6.298 4.352 14.182 5.632 21.555 3.533 48.538-13.875 99.686-20.941 151.962-20.941 239.974 0 435.2 149.299 435.2 332.8s-195.226 332.8-435.2 332.8z" />
<glyph unicode="&#xe91f;" glyph-name="building-with-big-windows" d="M884.995 960h-745.991c-12.795 0-23.167-10.372-23.167-23.167v-977.665c0-12.795 10.372-23.167 23.167-23.167h745.991c12.795 0 23.167 10.372 23.167 23.167v977.665c0 12.795-10.372 23.167-23.167 23.167zM683.439-17.665h-127.421v331.294h127.421v-331.294zM861.828-17.665h-132.054v354.462c0 12.795-10.372 23.167-23.167 23.167h-173.756c-12.795 0-23.167-10.372-23.167-23.167v-354.462h-347.511v931.33h699.656v-931.33zM238.624 663.457h115.837c12.795 0 23.167 10.372 23.167 23.167v150.588c0 12.795-10.372 23.167-23.167 23.167h-115.837c-12.795 0-23.167-10.372-23.167-23.167v-150.588c0-12.795 10.372-23.167 23.167-23.167zM261.792 814.045h69.502v-104.253h-69.502v104.253zM454.081 663.457h115.837c12.795 0 23.167 10.372 23.167 23.167v150.588c0 12.795-10.372 23.167-23.167 23.167h-115.837c-12.795 0-23.167-10.372-23.167-23.167v-150.588c0-12.795 10.372-23.167 23.167-23.167zM477.249 814.045h69.502v-104.253h-69.502v104.253zM669.538 663.457h115.837c12.795 0 23.167 10.372 23.167 23.167v150.588c0 12.795-10.372 23.167-23.167 23.167h-115.837c-12.795 0-23.167-10.372-23.167-23.167v-150.588c0-12.795 10.372-23.167 23.167-23.167zM692.706 814.045h69.502v-104.253h-69.502v104.253zM238.624 413.249h115.837c12.795 0 23.167 10.372 23.167 23.167v150.588c0 12.795-10.372 23.167-23.167 23.167h-115.837c-12.795 0-23.167-10.372-23.167-23.167v-150.588c0-12.795 10.372-23.167 23.167-23.167zM261.792 563.837h69.502v-104.253h-69.502v104.253zM454.081 413.249h115.837c12.795 0 23.167 10.372 23.167 23.167v150.588c0 12.795-10.372 23.167-23.167 23.167h-115.837c-12.795 0-23.167-10.372-23.167-23.167v-150.588c0-12.795 10.372-23.167 23.167-23.167zM477.249 563.837h69.502v-104.253h-69.502v104.253zM669.538 413.249h115.837c12.795 0 23.167 10.372 23.167 23.167v150.588c0 12.795-10.372 23.167-23.167 23.167h-115.837c-12.795 0-23.167-10.372-23.167-23.167v-150.588c0-12.795 10.372-23.167 23.167-23.167zM692.706 563.837h69.502v-104.253h-69.502v104.253zM238.624 163.041h115.837c12.795 0 23.167 10.372 23.167 23.167v150.588c0 12.795-10.372 23.167-23.167 23.167h-115.837c-12.795 0-23.167-10.372-23.167-23.167v-150.588c0-12.795 10.372-23.167 23.167-23.167zM261.792 313.629h69.502v-104.253h-69.502v104.253z" />
<glyph unicode="&#xe920;" glyph-name="Bulb" d="M669.12 273.344l-57.12 28.864 81.024 156.736c99.808 99.808 99.808 262.208 0 362.016s-262.24 99.808-362.048 0-99.808-262.208 0-362.016l3.648-3.648 76.96-153.184-57.184-28.736-72.416 144.064c-121.024 125.088-119.776 325.28 3.744 448.8 124.768 124.768 327.808 124.768 452.576 0 123.52-123.52 124.736-323.744 3.68-448.8l-72.864-144.096zM636.128 255.744l7.68-63.552-256-30.976-7.68 63.552 256 30.976zM636.128 159.744l7.68-63.552-256-30.976-7.68 63.552 256 30.976zM511.264-64c-52.928 0-96 43.072-96 96h64c0-17.632 14.368-32 32-32s32 14.368 32 32h64c0-52.928-43.072-96-96-96zM384 640h-64c0 105.888 86.112 192 192 192v-64c-70.592 0-128-57.408-128-128z" />
<glyph unicode="&#xe921;" glyph-name="bus" d="M281.6 140.8c-42.342 0-76.8 34.458-76.8 76.8s34.458 76.8 76.8 76.8 76.8-34.458 76.8-76.8-34.458-76.8-76.8-76.8zM281.6 243.2c-14.131 0-25.6-11.469-25.6-25.6s11.469-25.6 25.6-25.6 25.6 11.469 25.6 25.6-11.469 25.6-25.6 25.6zM742.4 140.8c-42.342 0-76.8 34.458-76.8 76.8s34.458 76.8 76.8 76.8 76.8-34.458 76.8-76.8-34.458-76.8-76.8-76.8zM742.4 243.2c-14.131 0-25.6-11.469-25.6-25.6s11.469-25.6 25.6-25.6 25.6 11.469 25.6 25.6-11.469 25.6-25.6 25.6zM691.2 704h-358.4c-14.131 0-25.6 11.469-25.6 25.6s11.469 25.6 25.6 25.6h358.4c14.131 0 25.6-11.469 25.6-25.6s-11.469-25.6-25.6-25.6zM793.6 652.8h-563.2c-14.131 0-25.6-11.469-25.6-25.6v-256c0-14.131 11.469-25.6 25.6-25.6h255.898c0.051 0 0.051 0 0.102 0s0.051 0 0.102 0h255.795c0.051 0 0.051 0 0.102 0s0.051 0 0.102 0h51.098c14.131 0 25.6 11.469 25.6 25.6v256c0 14.131-11.469 25.6-25.6 25.6zM256 601.6h512v-204.8h-17.869l-147.149 98.099c-11.776 7.834-27.648 4.659-35.482-7.117s-4.659-27.648 7.117-35.482l83.251-55.501h-163.686l-147.149 98.099c-11.776 7.834-27.648 4.659-35.482-7.117s-4.659-27.648 7.117-35.482l83.251-55.501h-145.869v204.8zM799.539 868.71c-69.786 26.573-166.554 40.090-287.539 40.090s-217.702-13.466-287.539-40.090c-100.915-38.451-122.061-96.87-122.061-139.11v-563.2c0-61.798 44.032-113.51 102.4-125.44v-53.76c0-28.211 22.989-51.2 51.2-51.2h51.2c28.211 0 51.2 22.989 51.2 51.2v51.2h307.2v-51.2c0-28.211 22.989-51.2 51.2-51.2h51.2c28.211 0 51.2 22.989 51.2 51.2v53.76c58.368 11.878 102.4 63.59 102.4 125.44v563.2c0 42.24-21.197 100.659-122.061 139.11zM307.2-12.8h-51.2v51.2h51.2v-51.2zM716.8-12.8v51.2h51.2v-51.2h-51.2zM870.4 166.4c0-42.342-34.458-76.8-76.8-76.8h-563.2c-42.342 0-76.8 34.458-76.8 76.8v563.2c0 38.042 30.003 68.762 89.139 91.29 63.078 24.013 156.16 36.71 269.261 36.71s206.234-12.698 269.261-36.71c59.136-22.528 89.139-53.248 89.139-91.29v-563.2z" />
<glyph unicode="&#xe922;" glyph-name="calendar-full" d="M947.2 857.6h-128v25.6c0 14.131-11.469 25.6-25.6 25.6s-25.6-11.469-25.6-25.6v-25.6h-512v25.6c0 14.131-11.469 25.6-25.6 25.6s-25.6-11.469-25.6-25.6v-25.6h-128c-42.342 0-76.8-34.458-76.8-76.8v-716.8c0-42.342 34.458-76.8 76.8-76.8h870.4c42.342 0 76.8 34.458 76.8 76.8v716.8c0 42.342-34.458 76.8-76.8 76.8zM76.8 806.4h128v-76.8c0-14.131 11.469-25.6 25.6-25.6s25.6 11.469 25.6 25.6v76.8h512v-76.8c0-14.131 11.469-25.6 25.6-25.6s25.6 11.469 25.6 25.6v76.8h128c14.131 0 25.6-11.469 25.6-25.6v-128h-921.6v128c0 14.131 11.469 25.6 25.6 25.6zM947.2 38.4h-870.4c-14.131 0-25.6 11.469-25.6 25.6v537.6h921.6v-537.6c0-14.131-11.469-25.6-25.6-25.6zM384 448h-51.2c-14.131 0-25.6 11.469-25.6 25.6s11.469 25.6 25.6 25.6h51.2c14.131 0 25.6-11.469 25.6-25.6s-11.469-25.6-25.6-25.6zM537.6 448h-51.2c-14.131 0-25.6 11.469-25.6 25.6s11.469 25.6 25.6 25.6h51.2c14.131 0 25.6-11.469 25.6-25.6s-11.469-25.6-25.6-25.6zM691.2 448h-51.2c-14.131 0-25.6 11.469-25.6 25.6s11.469 25.6 25.6 25.6h51.2c14.131 0 25.6-11.469 25.6-25.6s-11.469-25.6-25.6-25.6zM844.8 448h-51.2c-14.131 0-25.6 11.469-25.6 25.6s11.469 25.6 25.6 25.6h51.2c14.131 0 25.6-11.469 25.6-25.6s-11.469-25.6-25.6-25.6zM230.4 345.6h-51.2c-14.131 0-25.6 11.469-25.6 25.6s11.469 25.6 25.6 25.6h51.2c14.131 0 25.6-11.469 25.6-25.6s-11.469-25.6-25.6-25.6zM384 345.6h-51.2c-14.131 0-25.6 11.469-25.6 25.6s11.469 25.6 25.6 25.6h51.2c14.131 0 25.6-11.469 25.6-25.6s-11.469-25.6-25.6-25.6zM537.6 345.6h-51.2c-14.131 0-25.6 11.469-25.6 25.6s11.469 25.6 25.6 25.6h51.2c14.131 0 25.6-11.469 25.6-25.6s-11.469-25.6-25.6-25.6zM691.2 345.6h-51.2c-14.131 0-25.6 11.469-25.6 25.6s11.469 25.6 25.6 25.6h51.2c14.131 0 25.6-11.469 25.6-25.6s-11.469-25.6-25.6-25.6zM844.8 345.6h-51.2c-14.131 0-25.6 11.469-25.6 25.6s11.469 25.6 25.6 25.6h51.2c14.131 0 25.6-11.469 25.6-25.6s-11.469-25.6-25.6-25.6zM230.4 243.2h-51.2c-14.131 0-25.6 11.469-25.6 25.6s11.469 25.6 25.6 25.6h51.2c14.131 0 25.6-11.469 25.6-25.6s-11.469-25.6-25.6-25.6zM384 243.2h-51.2c-14.131 0-25.6 11.469-25.6 25.6s11.469 25.6 25.6 25.6h51.2c14.131 0 25.6-11.469 25.6-25.6s-11.469-25.6-25.6-25.6zM537.6 243.2h-51.2c-14.131 0-25.6 11.469-25.6 25.6s11.469 25.6 25.6 25.6h51.2c14.131 0 25.6-11.469 25.6-25.6s-11.469-25.6-25.6-25.6zM691.2 243.2h-51.2c-14.131 0-25.6 11.469-25.6 25.6s11.469 25.6 25.6 25.6h51.2c14.131 0 25.6-11.469 25.6-25.6s-11.469-25.6-25.6-25.6zM844.8 243.2h-51.2c-14.131 0-25.6 11.469-25.6 25.6s11.469 25.6 25.6 25.6h51.2c14.131 0 25.6-11.469 25.6-25.6s-11.469-25.6-25.6-25.6zM230.4 140.8h-51.2c-14.131 0-25.6 11.469-25.6 25.6s11.469 25.6 25.6 25.6h51.2c14.131 0 25.6-11.469 25.6-25.6s-11.469-25.6-25.6-25.6zM384 140.8h-51.2c-14.131 0-25.6 11.469-25.6 25.6s11.469 25.6 25.6 25.6h51.2c14.131 0 25.6-11.469 25.6-25.6s-11.469-25.6-25.6-25.6zM537.6 140.8h-51.2c-14.131 0-25.6 11.469-25.6 25.6s11.469 25.6 25.6 25.6h51.2c14.131 0 25.6-11.469 25.6-25.6s-11.469-25.6-25.6-25.6zM691.2 140.8h-51.2c-14.131 0-25.6 11.469-25.6 25.6s11.469 25.6 25.6 25.6h51.2c14.131 0 25.6-11.469 25.6-25.6s-11.469-25.6-25.6-25.6zM844.8 140.8h-51.2c-14.131 0-25.6 11.469-25.6 25.6s11.469 25.6 25.6 25.6h51.2c14.131 0 25.6-11.469 25.6-25.6s-11.469-25.6-25.6-25.6z" />
<glyph unicode="&#xe923;" glyph-name="car3" d="M281.6 140.8c-42.342 0-76.8 34.458-76.8 76.8s34.458 76.8 76.8 76.8 76.8-34.458 76.8-76.8-34.458-76.8-76.8-76.8zM281.6 243.2c-14.131 0-25.6-11.469-25.6-25.6s11.469-25.6 25.6-25.6 25.6 11.469 25.6 25.6-11.469 25.6-25.6 25.6zM742.4 140.8c-42.342 0-76.8 34.458-76.8 76.8s34.458 76.8 76.8 76.8 76.8-34.458 76.8-76.8-34.458-76.8-76.8-76.8zM742.4 243.2c-14.131 0-25.6-11.469-25.6-25.6s11.469-25.6 25.6-25.6 25.6 11.469 25.6 25.6-11.469 25.6-25.6 25.6zM868.25 350.362c-6.656 40.55-28.314 164.557-51.763 211.507-15.616 31.232-55.706 55.142-119.091 70.963-51.507 12.851-117.35 19.968-185.395 19.968s-133.888-7.066-185.395-19.968c-63.386-15.872-103.475-39.731-119.091-70.963-23.45-46.899-45.107-170.957-51.763-211.507-35.789-24.525-53.35-60.006-53.35-107.162v-128c0-33.382 21.402-61.85 51.2-72.397v-55.603c0-28.211 22.989-51.2 51.2-51.2h51.2c28.211 0 51.2 22.989 51.2 51.2v51.2h409.6v-51.2c0-28.211 22.989-51.2 51.2-51.2h51.2c28.211 0 51.2 22.989 51.2 51.2v55.603c29.798 10.547 51.2 39.014 51.2 72.397v128c0 47.155-17.562 82.637-53.35 107.162zM253.286 538.931c15.206 30.362 111.002 62.669 258.714 62.669s243.507-32.256 258.714-62.669c14.694-29.44 31.027-107.315 41.114-162.97-5.018 1.485-10.189 2.867-15.514 4.096-13.67 3.226-28.416 5.837-44.186 7.987l-148.429 106.342c-11.469 8.243-27.494 5.581-35.738-5.888s-5.581-27.494 5.888-35.738l80.179-57.446c-43.52 1.434-91.238 1.434-142.080 1.434-5.99 0-11.93 0-17.869 0l-147.149 98.099c-11.776 7.834-27.648 4.659-35.482-7.117s-4.659-27.648 7.117-35.482l84.173-56.115c-68.659-1.229-128.358-4.966-175.104-16.077-5.325-1.28-10.496-2.662-15.514-4.096 10.138 55.654 26.419 133.53 41.165 162.97zM256-12.8h-51.2v51.2h51.2v-51.2zM768-12.8v51.2h51.2v-51.2h-51.2zM870.4 115.2c0-14.131-11.469-25.6-25.6-25.6h-665.6c-14.131 0-25.6 11.469-25.6 25.6v128c0 47.309 24.883 72.55 85.914 87.091 64.256 15.309 160.768 15.309 272.486 15.309s208.179 0 272.486-15.309c61.030-14.541 85.914-39.782 85.914-87.091v-128z" />
<glyph unicode="&#xe924;" glyph-name="Chart2" d="M448-64c-247.040 0-448 200.96-448 448s200.96 448 448 448v-64c-211.744 0-384-172.256-384-384s172.256-384 384-384 384 172.256 384 384h64c0-247.040-200.96-448-448-448zM1024 448h-512v512h32c246.72 0 480-233.248 480-480v-32zM576 512h382.496c-17.792 190.944-191.552 364.704-382.496 382.496v-382.496z" />
<glyph unicode="&#xe925;" glyph-name="chart-bars" d="M896-64h-819.2c-42.342 0-76.8 34.458-76.8 76.8v819.2c0 42.342 34.458 76.8 76.8 76.8h819.2c42.342 0 76.8-34.458 76.8-76.8v-819.2c0-42.342-34.458-76.8-76.8-76.8zM76.8 857.6c-14.131 0-25.6-11.469-25.6-25.6v-819.2c0-14.131 11.469-25.6 25.6-25.6h819.2c14.131 0 25.6 11.469 25.6 25.6v819.2c0 14.131-11.469 25.6-25.6 25.6h-819.2zM332.8 89.6h-102.4c-14.131 0-25.6 11.469-25.6 25.6v460.8c0 14.131 11.469 25.6 25.6 25.6h102.4c14.131 0 25.6-11.469 25.6-25.6v-460.8c0-14.131-11.469-25.6-25.6-25.6zM256 140.8h51.2v409.6h-51.2v-409.6zM537.6 89.6h-102.4c-14.131 0-25.6 11.469-25.6 25.6v614.4c0 14.131 11.469 25.6 25.6 25.6h102.4c14.131 0 25.6-11.469 25.6-25.6v-614.4c0-14.131-11.469-25.6-25.6-25.6zM460.8 140.8h51.2v563.2h-51.2v-563.2zM742.4 89.6h-102.4c-14.131 0-25.6 11.469-25.6 25.6v256c0 14.131 11.469 25.6 25.6 25.6h102.4c14.131 0 25.6-11.469 25.6-25.6v-256c0-14.131-11.469-25.6-25.6-25.6zM665.6 140.8h51.2v204.8h-51.2v-204.8z" />
<glyph unicode="&#xe926;" glyph-name="checkmark-circle" d="M486.4-64c-129.946 0-252.058 50.586-343.962 142.438s-142.438 214.016-142.438 343.91c0 129.946 50.586 252.058 142.438 343.962s214.016 142.49 343.962 142.49c129.946 0 252.058-50.586 343.962-142.49s142.438-214.016 142.438-343.962-50.586-252.058-142.438-343.91c-91.853-91.853-214.016-142.438-343.962-142.438zM486.4 857.6c-239.974 0-435.2-195.226-435.2-435.2s195.226-435.2 435.2-435.2 435.2 195.226 435.2 435.2-195.226 435.2-435.2 435.2zM384 217.6c-6.554 0-13.107 2.509-18.125 7.475l-153.6 153.6c-9.984 9.984-9.984 26.214 0 36.198s26.214 9.984 36.198 0l135.475-135.475 340.275 340.275c9.984 9.984 26.214 9.984 36.198 0s9.984-26.214 0-36.198l-358.4-358.4c-5.018-5.018-11.571-7.475-18.125-7.475z" />
<glyph unicode="&#xe927;" glyph-name="check-square" d="M908.619 960h-793.238c-63.619 0-115.381-51.762-115.381-115.381v-793.238c0-63.619 51.762-115.381 115.381-115.381h793.238c63.619 0 115.381 51.762 115.381 115.381v793.238c0 63.619-51.762 115.381-115.381 115.381zM951.889 51.381c0-23.859-19.411-43.267-43.27-43.267h-793.238c-23.859 0-43.27 19.408-43.27 43.267v793.238c0 23.859 19.411 43.27 43.27 43.27h793.238c23.859 0 43.27-19.411 43.27-43.27v-793.238zM758.908 775.094c-6.765 6.765-15.936 10.568-25.507 10.568-9.564 0-18.735-3.806-25.497-10.568l-288.144-288.261-103.679 103.71c-6.765 6.765-15.936 10.561-25.503 10.561-9.561 0-18.735-3.799-25.5-10.564l-144.632-144.718c-14.071-14.081-14.071-36.902 0.003-50.979l273.815-273.936c6.761-6.768 15.936-10.568 25.5-10.568s18.742 3.803 25.5 10.568l458.29 458.49c14.074 14.077 14.074 36.898 0.003 50.979l-144.649 144.718zM419.764 197.396l-222.839 222.932 93.66 93.718 103.676-103.71c6.765-6.761 15.939-10.564 25.5-10.564 9.564 0 18.742 3.803 25.5 10.564l288.14 288.261 93.67-93.715-407.307-407.486z" />
<glyph unicode="&#xe928;" glyph-name="chevron-down" d="M0 652.8c0 6.554 2.509 13.107 7.475 18.125 9.984 9.984 26.214 9.984 36.198 0l442.675-442.675 442.675 442.675c9.984 9.984 26.214 9.984 36.198 0s9.984-26.214 0-36.198l-460.8-460.8c-9.984-9.984-26.214-9.984-36.198 0l-460.8 460.8c-5.018 5.018-7.475 11.571-7.475 18.125z" />
<glyph unicode="&#xe929;" glyph-name="chevron-down-circle" d="M830.362 78.438c91.853 91.853 142.438 214.016 142.438 343.962s-50.586 252.058-142.438 343.91-214.016 142.438-343.962 142.438-252.058-50.586-343.962-142.438-142.438-214.016-142.438-343.91 50.586-252.058 142.438-343.962 214.016-142.438 343.962-142.438 252.058 50.586 343.962 142.438zM51.2 422.4c0 239.974 195.226 435.2 435.2 435.2s435.2-195.226 435.2-435.2c0-239.974-195.226-435.2-435.2-435.2s-435.2 195.226-435.2 435.2zM204.8 499.2c0 6.554 2.509 13.107 7.475 18.125 9.984 9.984 26.214 9.984 36.198 0l237.875-237.875 237.875 237.875c9.984 9.984 26.214 9.984 36.198 0s9.984-26.214 0-36.198l-256-256c-9.984-9.984-26.214-9.984-36.198 0l-256 256c-5.018 5.018-7.475 11.571-7.475 18.125z" />
<glyph unicode="&#xe92a;" glyph-name="chevron-left" d="M716.8-64c6.554 0 13.107 2.509 18.125 7.475 9.984 9.984 9.984 26.214 0 36.198l-442.675 442.675 442.675 442.675c9.984 9.984 9.984 26.214 0 36.198s-26.214 9.984-36.198 0l-460.8-460.8c-9.984-9.984-9.984-26.214 0-36.198l460.8-460.8c5.018-5.018 11.571-7.475 18.125-7.475z" />
<glyph unicode="&#xe92b;" glyph-name="chevron-left-circle" d="M142.438 766.362c91.853 91.853 214.016 142.438 343.962 142.438s252.058-50.586 343.962-142.438 142.438-214.016 142.438-343.91-50.586-252.058-142.438-343.962-214.016-142.438-343.962-142.438-252.058 50.586-343.962 142.438-142.438 214.016-142.438 343.962 50.586 252.058 142.438 343.91zM486.4-12.8c239.974 0 435.2 195.226 435.2 435.2s-195.226 435.2-435.2 435.2c-239.974 0-435.2-195.226-435.2-435.2s195.226-435.2 435.2-435.2zM563.2 140.8c6.554 0 13.107 2.509 18.125 7.475 9.984 9.984 9.984 26.214 0 36.198l-237.875 237.875 237.875 237.875c9.984 9.984 9.984 26.214 0 36.198s-26.214 9.984-36.198 0l-256-256c-9.984-9.984-9.984-26.214 0-36.198l256-256c5.018-5.018 11.571-7.475 18.125-7.475z" />
<glyph unicode="&#xe92c;" glyph-name="chevron-right" d="M256-64c-6.554 0-13.107 2.509-18.125 7.475-9.984 9.984-9.984 26.214 0 36.198l442.675 442.675-442.675 442.675c-9.984 9.984-9.984 26.214 0 36.198s26.214 9.984 36.198 0l460.8-460.8c9.984-9.984 9.984-26.214 0-36.198l-460.8-460.8c-5.018-5.018-11.571-7.475-18.125-7.475z" />
<glyph unicode="&#xe92d;" glyph-name="chevron-right-circle" d="M830.362 766.362c-91.853 91.853-214.016 142.438-343.962 142.438s-252.058-50.586-343.962-142.438-142.438-214.016-142.438-343.91 50.586-252.058 142.438-343.962 214.016-142.438 343.962-142.438 252.058 50.586 343.962 142.438 142.438 214.016 142.438 343.962-50.586 252.058-142.438 343.91zM486.4-12.8c-239.974 0-435.2 195.226-435.2 435.2s195.226 435.2 435.2 435.2c239.974 0 435.2-195.226 435.2-435.2s-195.226-435.2-435.2-435.2zM409.6 140.8c-6.554 0-13.107 2.509-18.125 7.475-9.984 9.984-9.984 26.214 0 36.198l237.875 237.875-237.875 237.875c-9.984 9.984-9.984 26.214 0 36.198s26.214 9.984 36.198 0l256-256c9.984-9.984 9.984-26.214 0-36.198l-256-256c-5.018-5.018-11.571-7.475-18.125-7.475z" />
<glyph unicode="&#xe92e;" glyph-name="chevron-up" d="M0 192c0-6.554 2.509-13.107 7.475-18.125 9.984-9.984 26.214-9.984 36.198 0l442.675 442.675 442.675-442.675c9.984-9.984 26.214-9.984 36.198 0s9.984 26.214 0 36.198l-460.8 460.8c-9.984 9.984-26.214 9.984-36.198 0l-460.8-460.8c-5.018-5.018-7.475-11.571-7.475-18.125z" />
<glyph unicode="&#xe92f;" glyph-name="chevron-up-circle" d="M142.438 766.362c-91.853-91.853-142.438-214.016-142.438-343.962s50.586-252.058 142.438-343.962 214.016-142.438 343.962-142.438 252.058 50.586 343.962 142.438 142.438 214.016 142.438 343.91-50.586 252.058-142.438 343.962-214.016 142.438-343.962 142.438-252.058-50.586-343.962-142.438zM921.6 422.4c0-239.974-195.226-435.2-435.2-435.2s-435.2 195.226-435.2 435.2c0 239.974 195.226 435.2 435.2 435.2s435.2-195.226 435.2-435.2zM768 345.6c0-6.554-2.509-13.107-7.475-18.125-9.984-9.984-26.214-9.984-36.198 0l-237.875 237.875-237.875-237.875c-9.984-9.984-26.214-9.984-36.198 0s-9.984 26.214 0 36.198l256 256c9.984 9.984 26.214 9.984 36.198 0l256-256c5.018-5.018 7.475-11.571 7.475-18.125z" />
<glyph unicode="&#xe930;" glyph-name="circle-minus" d="M830.362 766.362c-91.853 91.853-214.016 142.438-343.962 142.438s-252.058-50.586-343.962-142.438-142.438-214.016-142.438-343.91 50.586-252.058 142.438-343.962 214.016-142.438 343.962-142.438 252.058 50.586 343.962 142.438 142.438 214.016 142.438 343.962-50.586 252.058-142.438 343.91zM486.4-12.8c-239.974 0-435.2 195.226-435.2 435.2s195.226 435.2 435.2 435.2c239.974 0 435.2-195.226 435.2-435.2s-195.226-435.2-435.2-435.2zM793.6 396.8h-614.4c-14.131 0-25.6 11.469-25.6 25.6s11.469 25.6 25.6 25.6h614.4c14.131 0 25.6-11.469 25.6-25.6s-11.469-25.6-25.6-25.6z" />
<glyph unicode="&#xe931;" glyph-name="circular-info-sign" d="M511.998 959.998c-282.316 0-511.998-229.681-511.998-511.998 0-282.319 229.682-511.998 511.998-511.998s512.002 229.681 512.002 511.998-229.682 511.998-512.002 511.998zM511.998-4.14c-249.311 0-452.138 202.826-452.138 452.14 0 249.309 202.827 452.138 452.138 452.138s452.141-202.829 452.141-452.138c0-249.314-202.827-452.14-452.141-452.14zM504.026 609.595c61.253 0 111.084 49.835 111.084 111.087 0 61.256-49.831 111.089-111.084 111.089-61.256 0-111.087-49.835-111.087-111.089 0-61.253 49.833-111.087 111.087-111.087zM504.026 771.91c28.244 0 51.223-22.981 51.223-51.228 0-28.244-22.98-51.227-51.223-51.227-28.247 0-51.227 22.98-51.227 51.227s22.98 51.228 51.227 51.228zM689.651 237.705h-59.178v314.174c0 16.53-13.401 29.93-29.93 29.93h-266.193c-16.53 0-29.93-13.401-29.93-29.93v-93.621c0-16.531 13.401-29.93 29.93-29.93h73.951v-190.623h-57.719c-16.53 0-29.93-13.401-29.93-29.93v-113.62c0-16.531 13.401-29.93 29.93-29.93h339.068c16.53 0 29.93 13.399 29.93 29.93v113.62c0.003 16.53-13.399 29.93-29.929 29.93zM659.72 124.085h-279.207v53.76h57.719c16.53 0 29.93 13.399 29.93 29.93v250.483c0 16.53-13.401 29.93-29.93 29.93h-73.954v33.759h206.336v-314.174c0-16.531 13.401-29.93 29.93-29.93h59.178v-53.76h-0.002z" />
<glyph unicode="&#xe932;" glyph-name="ClipboardText" d="M896-64h-768v896h128.512v-64h-64.512v-768h640v768h-66.4v64h130.4zM702.88 703.616h-381.76v192.384h100.256c13.216 37.248 48.8 64 90.528 64s77.312-26.752 90.528-64h100.448v-192.384zM385.12 767.616h253.76v64.384h-94.976v32c0 17.632-14.368 32-32 32s-32-14.368-32-32v-32h-94.784v-64.384zM319.744 448h384v-64h-384v64zM319.744 320h384v-64h-384v64zM319.744 192h384v-64h-384v64zM319.744 576h160v-64h-160v64z" />
<glyph unicode="&#xe933;" glyph-name="clipboard-with-blank-paper" d="M847.71 861.733h-208.342c-14.825 56.478-66.303 98.267-127.368 98.267s-112.543-41.789-127.368-98.267h-208.342c-27.338 0-49.578-22.241-49.578-49.578v-826.577c0-27.338 22.243-49.578 49.578-49.578h671.422c27.338 0 49.578 22.241 49.578 49.578v826.577c0 27.338-22.243 49.578-49.581 49.578zM512 913.665c47.058 0 85.34-38.284 85.34-85.34v-58.917c0-12.795 10.374-23.167 23.167-23.167 28.371 0 52.632-17.932 62.042-43.057h-341.099c9.413 25.125 33.672 43.057 62.042 43.057 12.793 0 23.167 10.372 23.167 23.167v58.917c0 47.055 38.282 85.34 85.34 85.34zM314.102 656.85h395.797c12.793 0 23.167 10.372 23.167 23.167 0 16.787-3.7 32.724-10.319 47.048h46.94v-663.464h-515.375v663.464h46.94c-6.617-14.324-10.319-30.261-10.319-47.048 0.002-12.795 10.377-23.167 23.17-23.167zM850.956-14.422c0-1.789-1.455-3.243-3.243-3.243h-671.422c-1.789 0-3.243 1.455-3.243 3.243v826.577c0 1.789 1.455 3.243 3.243 3.243h204.035v-25.22c-14.401-3.026-27.794-8.813-39.605-16.78h-109.577c-12.793 0-23.167-10.372-23.167-23.167v-709.799c0-12.795 10.374-23.167 23.167-23.167h561.71c12.793 0 23.167 10.372 23.167 23.167v709.801c0 12.795-10.374 23.167-23.167 23.167h-109.575c-11.811 7.965-25.206 13.754-39.605 16.78v25.218h204.035c1.789 0 3.243-1.455 3.243-3.243v-826.577zM512 792.416c19.801 0 35.91 16.108 35.91 35.91s-16.108 35.91-35.91 35.91-35.91-16.108-35.91-35.91 16.108-35.91 35.91-35.91zM512 838.751c5.748 0 10.425-4.678 10.425-10.425s-4.678-10.425-10.425-10.425-10.425 4.678-10.425 10.425 4.678 10.425 10.425 10.425z" />
<glyph unicode="&#xe934;" glyph-name="clock" d="M511.984-64c-282.318 0-511.984 229.666-511.984 512.016 0 282.285 229.666 511.984 511.984 511.984s511.984-229.699 511.984-511.984c0.033-282.351-229.666-512.016-511.984-512.016zM511.984 901.479c-250.041 0-453.463-203.422-453.463-453.463 0-250.074 203.422-453.496 453.463-453.496s453.463 203.422 453.463 453.496c0.033 250.041-203.389 453.463-453.463 453.463zM669.017 261.739c-7.517 0-14.968 2.835-20.705 8.572l-157.001 157.001c-5.506 5.506-8.572 12.924-8.572 20.705v332.168c0 16.155 13.089 29.244 29.277 29.244 16.155 0 29.244-13.056 29.244-29.244v-320.068l148.429-148.429c11.44-11.44 11.44-29.969 0-41.377-5.737-5.737-13.221-8.572-20.672-8.572z" />
<glyph unicode="&#xe935;" glyph-name="clock-with-clockwise" d="M874.040 810.040c-96.705 96.703-225.28 149.96-362.040 149.96s-265.334-53.257-362.040-149.96c-96.703-96.705-149.96-225.28-149.96-362.040s53.257-265.334 149.96-362.040c96.705-96.703 225.28-149.96 362.040-149.96s265.334 53.257 362.040 149.96c96.703 96.705 149.96 225.28 149.96 362.040s-53.257 265.334-149.96 362.040zM512-17.665c-256.769 0-465.665 208.896-465.665 465.665s208.896 465.665 465.665 465.665 465.665-208.896 465.665-465.665-208.896-465.665-465.665-465.665zM512 867.33c-231.218 0-419.33-188.11-419.33-419.33s188.11-419.33 419.33-419.33c96.434 0 190.668 33.69 265.343 94.866 9.897 8.109 11.347 22.704 3.241 32.601-8.109 9.895-22.704 11.35-32.604 3.239-66.416-54.406-150.222-84.371-235.981-84.371-205.669 0-372.995 167.327-372.995 372.995s167.327 372.995 372.995 372.995c205.671 0 372.995-167.327 372.995-372.995 0-85.759-29.965-169.565-84.373-235.981-8.109-9.895-6.658-24.493 3.239-32.601 9.897-8.111 24.495-6.658 32.604 3.239 61.176 74.673 94.866 168.909 94.866 265.343 0 231.22-188.11 419.33-419.33 419.33zM592.977 443.793l100.862 100.862c11.378 11.375 17.644 26.501 17.644 42.593 0 16.087-6.267 31.216-17.644 42.593-23.487 23.485-61.699 23.482-85.187 0l-96.652-96.654-145.797 145.795c-11.378 11.38-26.504 17.644-42.593 17.644s-31.216-6.264-42.591-17.642c-11.378-11.375-17.644-26.501-17.644-42.593s6.267-31.218 17.642-42.593l150.007-150.007c0.637-12.378 4.061-24.034 9.658-34.346l-159.665-159.665c-9.047-9.047-9.047-23.716 0-32.766 4.522-4.522 10.453-6.786 16.382-6.786s11.859 2.263 16.382 6.786l159.665 159.665c11.475-6.225 24.608-9.765 38.555-9.765 43.3 0 78.781 34.116 80.977 76.879zM641.416 597.075c5.421 5.419 14.239 5.421 19.658 0.002 2.625-2.627 4.073-6.119 4.073-9.83s-1.446-7.203-4.073-9.828l-82.796-82.796c-5.379 7.624-12.033 14.278-19.658 19.658l82.796 82.793zM309.709 636.391c0 3.714 1.446 7.203 4.073 9.83 2.625 2.625 6.116 4.071 9.828 4.071 3.714 0 7.203-1.446 9.83-4.073l131.938-131.938c-7.624-5.379-14.278-12.033-19.658-19.658l-131.941 131.941c-2.625 2.625-4.071 6.116-4.071 9.828zM512 413.249c-9.538 0-18.189 3.867-24.474 10.11-0.028 0.030-0.051 0.060-0.081 0.090-0.028 0.028-0.060 0.051-0.088 0.079-6.241 6.283-10.108 14.934-10.108 24.472 0 19.162 15.589 34.751 34.751 34.751s34.751-15.589 34.751-34.751-15.589-34.751-34.751-34.751zM243.258 471.167h-34.751c-12.795 0-23.167-10.374-23.167-23.167s10.372-23.167 23.167-23.167h34.751c12.795 0 23.167 10.374 23.167 23.167s-10.372 23.167-23.167 23.167zM535.167 716.742v34.751c0 12.793-10.372 23.167-23.167 23.167s-23.167-10.374-23.167-23.167v-34.751c0-12.793 10.372-23.167 23.167-23.167s23.167 10.374 23.167 23.167zM838.661 448c0 12.793-10.372 23.167-23.167 23.167h-34.751c-12.795 0-23.167-10.374-23.167-23.167s10.372-23.167 23.167-23.167h34.751c12.795 0 23.167 10.374 23.167 23.167zM488.833 179.258v-34.751c0-12.793 10.372-23.167 23.167-23.167s23.167 10.374 23.167 23.167v34.751c0 12.793-10.372 23.167-23.167 23.167s-23.167-10.374-23.167-23.167z" />
<glyph unicode="&#xe936;" glyph-name="closed-book" d="M882.679 353.025v583.807c0 12.793-10.374 23.167-23.167 23.167h-602.353c-63.873 0-115.837-51.965-115.837-115.837v-792.326c0-63.873 51.965-115.837 115.837-115.837h602.353c12.793 0 23.167 10.374 23.167 23.167s-10.374 23.167-23.167 23.167h-13.062v139.005h13.062c12.793 0 23.167 10.374 23.167 23.167v208.518zM836.344 167.674h-129.406l129.406 129.406v-129.406zM836.344 784.259l-129.406 129.406h129.406v-129.406zM187.656 844.163c0 38.324 31.179 69.502 69.502 69.502v-551.127c0-12.793 10.374-23.167 23.167-23.167s23.167 10.374 23.167 23.167v551.127h337.913l194.938-194.938v-356.118l-194.938-194.935h-337.913v115.837c0 12.793-10.374 23.167-23.167 23.167s-23.167-10.374-23.167-23.167v-115.837c-26.054 0-50.13-8.648-69.502-23.221v699.709zM800.115-17.665h-542.956c-38.324 0-69.502 31.179-69.502 69.502s31.179 69.502 69.502 69.502h542.956v-139.005z" />
<glyph unicode="&#xe937;" glyph-name="cloud" d="M819.507 140.8h-512.307c-169.37 0-307.2 137.83-307.2 307.2s137.83 307.2 307.2 307.2c82.022 0 160.614-32.922 218.112-90.88 4.506 9.933 10.035 19.456 16.64 28.416 28.877 39.117 75.11 62.464 123.648 62.464 84.685 0 153.6-68.915 153.6-153.6 0-17.971-3.123-35.533-9.114-52.070 3.123 0.154 6.246 0.205 9.421 0.205 112.742 0 204.493-91.75 204.493-204.493s-91.75-204.493-204.493-204.493zM307.2 704c-141.158 0-256-114.842-256-256s114.842-256 256-256h512.307c84.531 0 153.293 68.762 153.293 153.293s-68.762 153.293-153.293 153.293c-18.125 0-35.789-3.123-52.531-9.216-11.162-4.096-23.654 0.051-30.208 9.984s-5.325 23.040 2.867 31.693c18.278 19.251 28.365 44.288 28.365 70.605 0 56.474-45.926 102.4-102.4 102.4-32.87 0-62.925-15.206-82.432-41.677-11.776-15.974-18.688-34.714-19.866-54.118-0.666-10.854-8.141-20.122-18.586-23.040s-21.658 1.024-27.904 9.882c-5.632 7.987-11.725 15.718-18.125 22.886-48.589 54.682-118.374 86.067-191.488 86.067z" />
<glyph unicode="&#xe938;" glyph-name="cloud-check" d="M819.2 140.8h-486.4c-14.131 0-25.6 11.469-25.6 25.6s11.469 25.6 25.6 25.6h486.4c84.685 0 153.6 68.915 153.6 153.6s-68.915 153.6-153.6 153.6c-17.562 0-34.816-2.918-51.2-8.704-11.11-3.942-23.45 0.256-29.901 10.086s-5.376 22.835 2.611 31.488c17.613 18.995 27.29 43.674 27.29 69.581 0 56.474-45.926 102.4-102.4 102.4-54.016 0-98.867-42.138-102.195-96-0.666-10.854-8.141-20.122-18.586-23.040s-21.658 1.024-27.904 9.933c-47.974 68.301-126.362 109.107-209.715 109.107-141.158 0-256-114.842-256-256 0-7.782 0.358-15.616 1.024-23.296 1.28-14.080-9.114-26.522-23.194-27.802s-26.522 9.114-27.802 23.194c-0.819 9.216-1.229 18.586-1.229 27.904 0 169.37 137.83 307.2 307.2 307.2 82.483 0 160.922-33.28 218.163-90.931 24.115 53.76 78.182 90.931 140.237 90.931 84.685 0 153.6-68.915 153.6-153.6 0-17.715-3.021-35.072-8.806-51.405 2.918 0.102 5.888 0.205 8.806 0.205 112.947 0 204.8-91.853 204.8-204.8s-91.853-204.8-204.8-204.8zM179.2 166.4c-6.554 0-13.107 2.509-18.125 7.475l-102.4 102.4c-9.984 9.984-9.984 26.214 0 36.198s26.214 9.984 36.198 0l84.275-84.275 237.875 237.875c9.984 9.984 26.214 9.984 36.198 0s9.984-26.214 0-36.198l-256-256c-5.018-5.018-11.571-7.475-18.125-7.475z" />
<glyph unicode="&#xe939;" glyph-name="cloud-download" d="M819.507 140.8h-128.307c-14.131 0-25.6 11.469-25.6 25.6s11.469 25.6 25.6 25.6h128.307c84.531 0 153.293 68.762 153.293 153.293s-68.762 153.293-153.293 153.293c-18.022 0-35.635-3.072-52.378-9.165-11.162-4.045-23.654 0.102-30.157 10.035s-5.325 23.040 2.867 31.642c18.176 19.098 28.16 44.134 28.16 70.502 0 56.474-45.926 102.4-102.4 102.4-32.87 0-62.925-15.206-82.432-41.677-11.725-15.872-18.534-34.662-19.763-54.323-0.666-10.854-8.141-20.122-18.637-23.091s-21.658 1.075-27.904 9.984l-0.256 0.358c-5.478 7.782-11.571 15.462-17.971 22.63-48.589 54.682-118.374 86.067-191.488 86.067-141.158 0-256-114.842-256-256s114.842-256 256-256h76.8c14.131 0 25.6-11.469 25.6-25.6s-11.469-25.6-25.6-25.6h-76.8c-169.37 0-307.2 137.83-307.2 307.2s137.83 307.2 307.2 307.2c82.074 0 160.614-32.922 218.163-90.88 4.454 9.984 10.035 19.507 16.589 28.416 28.877 39.117 75.11 62.464 123.648 62.464 84.685 0 153.6-68.915 153.6-153.6 0-17.971-3.123-35.533-9.011-52.070 3.123 0.154 6.246 0.205 9.37 0.205 112.742 0 204.493-91.75 204.493-204.493s-91.75-204.493-204.493-204.493zM658.125 286.925c-9.984 9.984-26.214 9.984-36.198 0l-58.675-58.675v194.202c0 14.131-11.469 25.6-25.6 25.6s-25.6-11.469-25.6-25.6v-194.202l-58.675 58.675c-9.984 9.984-26.214 9.984-36.198 0s-9.984-26.214 0-36.198l102.4-102.4c5.018-5.018 11.571-7.475 18.125-7.475s13.107 2.509 18.125 7.475l102.4 102.4c9.984 9.984 9.984 26.214 0 36.198z" />
<glyph unicode="&#xe93a;" glyph-name="cloud-upload" d="M819.507 140.8h-179.507c-14.131 0-25.6 11.469-25.6 25.6s11.469 25.6 25.6 25.6h179.507c84.531 0 153.293 68.762 153.293 153.293s-68.762 153.293-153.293 153.293c-18.022 0-35.635-3.072-52.378-9.165-11.162-4.045-23.654 0.102-30.157 10.035s-5.325 23.040 2.867 31.642c18.176 19.098 28.16 44.134 28.16 70.502 0 56.474-45.926 102.4-102.4 102.4-32.87 0-62.925-15.206-82.432-41.677-11.725-15.872-18.534-34.662-19.763-54.323-0.666-10.854-8.141-20.122-18.637-23.091s-21.658 1.075-27.904 9.984l-0.256 0.358c-5.478 7.782-11.571 15.462-17.971 22.63-48.589 54.682-118.374 86.067-191.488 86.067-141.158 0-256-114.842-256-256s114.842-256 256-256h128c14.131 0 25.6-11.469 25.6-25.6s-11.469-25.6-25.6-25.6h-128c-169.37 0-307.2 137.83-307.2 307.2s137.83 307.2 307.2 307.2c82.074 0 160.614-32.922 218.163-90.88 4.454 9.984 10.035 19.507 16.589 28.416 28.877 39.117 75.11 62.464 123.648 62.464 84.685 0 153.6-68.915 153.6-153.6 0-17.971-3.123-35.533-9.011-52.070 3.123 0.154 6.246 0.205 9.37 0.205 112.742 0 204.493-91.75 204.493-204.493s-91.75-204.493-204.493-204.493zM658.125 338.125l-102.4 102.4c-9.984 9.984-26.214 9.984-36.198 0l-102.4-102.4c-9.984-9.984-9.984-26.214 0-36.198s26.214-9.984 36.198 0l58.675 58.675v-194.202c0-14.131 11.469-25.6 25.6-25.6s25.6 11.469 25.6 25.6v194.202l58.675-58.675c5.018-5.018 11.571-7.475 18.125-7.475s13.107 2.509 18.125 7.475c9.984 9.984 9.984 26.214 0 36.198z" />
<glyph unicode="&#xe93b;" glyph-name="Column" d="M800 480c-123.488 0-224 100.48-224 224h64c0-88.224 71.776-160 160-160s160 71.776 160 160-71.776 160-160 160h-576c-88.224 0-160-71.776-160-160s71.776-160 160-160 160 71.776 160 160h64c0-123.52-100.512-224-224-224s-224 100.48-224 224 100.512 224 224 224h576c123.488 0 224-100.48 224-224s-100.512-224-224-224zM448 544h128v-64h-128v64zM192 416h64v-448h-64v448zM384 416h64v-448h-64v448zM576 416h64v-448h-64v448zM768 416h64v-448h-64v448zM194.208 704h-64c0 52.928 43.072 96 96 96v-64c-17.632 0-32-14.368-32-32zM770.208 704h-64c0 52.928 43.072 96 96 96v-64c-17.632 0-32-14.368-32-32z" />
<glyph unicode="&#xe93c;" glyph-name="cup" d="M849.361 903.773c-28.813 0-55.689-8.399-78.376-22.818v44.966c0 18.818-15.26 34.078-34.078 34.078h-449.808c-18.818 0-34.078-15.26-34.078-34.078v-44.966c-22.683 14.422-49.559 22.818-78.372 22.818-80.799 0-146.532-65.733-146.532-146.529s65.733-146.532 146.532-146.532h56.227c12.212 0 22.149-9.937 22.149-22.149s-9.937-22.149-22.149-22.149c-18.818 0-34.078-15.26-34.078-34.078s15.26-34.078 34.078-34.078c16.301 0 31.589 4.365 44.804 11.947 12.322-34.054 29.451-64.864 51.038-90.957 26.541-32.085 58.63-56.134 94.163-71.218-1.538-19.163-5.954-53.127-18.639-86.299-22.876-59.823-60.54-88.902-115.143-88.902h-56.227c-18.818 0-34.078-15.257-34.078-34.078v-168.677c0-18.818 15.26-34.078 34.078-34.078h562.262c18.818 0 34.078 15.26 34.078 34.078v168.677c0 18.822-15.26 34.078-34.078 34.078h-56.227c-54.603 0-92.267 29.082-115.14 88.902-12.688 33.175-17.098 67.139-18.635 86.299 35.537 15.084 67.618 39.133 94.16 71.218 21.59 26.090 38.719 56.903 51.041 90.957 13.215-7.582 28.507-11.947 44.804-11.947 18.818 0 34.078 15.26 34.078 34.078s-15.26 34.078-34.078 34.078c-12.212 0-22.149 9.937-22.149 22.149s9.937 22.149 22.149 22.149h56.227c80.796 0 146.525 65.736 146.525 146.532s-65.736 146.529-146.529 146.529zM230.872 678.869h-56.227c-43.218 0-78.379 35.157-78.379 78.379 0 43.215 35.161 78.372 78.379 78.372 43.215 0 78.372-35.157 78.372-78.372v-81.13c-7.089 1.789-14.505 2.751-22.145 2.751zM759.056 104.681v-100.524h-494.106v100.524h494.106zM557.408 239.242c9.602-25.61 21.921-47.818 36.661-66.412h-164.13c14.736 18.594 27.058 40.801 36.661 66.412 12.767 34.051 18.522 67.853 21.118 91.632 8.009-0.824 16.108-1.293 24.286-1.293s16.277 0.469 24.286 1.293c2.596-23.78 8.351-57.582 21.118-91.632zM512.003 397.738c-110.571 0-190.829 103.9-190.829 247.053v247.053h381.655v-247.053c0.003-143.153-80.255-247.053-190.826-247.053zM849.361 678.869h-56.227c-7.64 0-15.057-0.962-22.149-2.755v81.13c0 43.215 35.157 78.372 78.376 78.372 43.215 0 78.372-35.157 78.372-78.372 0-43.218-35.157-78.376-78.372-78.376z" />
<glyph unicode="&#xe93d;" glyph-name="cup-1" d="M905.585 921.378h-134.606v4.544c0 18.818-15.257 34.078-34.075 34.078h-449.808c-18.818 0-34.078-15.26-34.078-34.078v-4.544h-134.603c-18.818 0-34.075-15.257-34.075-34.078v-186.282c0-128.421 69.508-200.125 195.881-202.635 11.878-29.375 27.434-56.096 46.49-79.131 26.752-32.334 59.123-56.527 94.987-71.59v-174.832h-134.603c-18.818 0-34.078-15.257-34.078-34.078v-168.677c0-18.818 15.26-34.078 34.078-34.078h449.812c18.818 0 34.075 15.26 34.075 34.078v168.677c0 18.822-15.257 34.078-34.075 34.078h-134.603v174.832c35.861 15.063 68.236 39.257 94.987 71.59 19.056 23.035 34.613 49.759 46.49 79.131 126.369 2.51 195.877 74.211 195.877 202.635v186.282c0 18.822-15.257 34.078-34.075 34.078zM152.493 701.018v152.207h100.524v-208.434c0-26.534 2.424-52.334 7.051-77.024-74.121 7.744-107.575 49.724-107.575 133.251zM702.829 104.681v-100.524h-381.659v100.524h381.659zM534.152 172.83h-44.304v157.865c7.32-0.686 14.695-1.114 22.152-1.114s14.832 0.428 22.152 1.114v-157.865zM512 397.738c-110.571 0-190.829 103.9-190.829 247.053v247.053h381.655v-247.053c0.003-143.153-80.255-247.053-190.826-247.053zM871.507 701.018c0-83.527-33.454-125.504-107.575-133.251 4.627 24.69 7.047 50.49 7.047 77.024v208.434h100.528v-152.207z" />
<glyph unicode="&#xe93e;" glyph-name="cutlery" d="M601.83 960c-119.527 0-216.773-97.251-216.773-216.783v-354.592c0-20.51 16.623-37.128 37.128-37.128h142.517v-378.369c0-20.51 16.623-37.128 37.128-37.128s37.128 16.618 37.128 37.128v949.744c0 20.51-16.623 37.128-37.128 37.128zM459.313 743.217c0 65.746 44.752 121.24 105.389 137.621v-455.085h-105.389v317.464zM968.768 960c-20.505 0-37.128-16.618-37.128-37.128v-218.174c0-26.955-14.594-50.568-36.296-63.345v281.519c0 20.51-16.623 37.128-37.128 37.128s-37.128-16.618-37.128-37.128v-281.524c-21.708 12.777-36.306 36.39-36.306 63.35v218.174c0 20.51-16.623 37.128-37.128 37.128s-37.128-16.618-37.128-37.128v-218.174c0-68.617 47.039-126.458 110.562-142.968v-588.598c0-20.51 16.623-37.128 37.128-37.128s37.128 16.618 37.128 37.128v588.598c63.519 16.51 110.552 74.35 110.552 142.968v218.174c0 20.51-16.623 37.128-37.128 37.128zM165.759 960c-81.419 0-147.661-66.246-147.661-147.67v-107.632c0-68.617 47.029-126.453 110.533-142.963v-588.602c0-20.51 16.623-37.128 37.128-37.128s37.128 16.618 37.128 37.128v588.598c63.528 16.51 110.572 74.35 110.572 142.968v107.632c0 81.424-66.256 147.67-147.7 147.67zM239.203 704.698c0-40.499-32.945-73.444-73.444-73.444-40.474 0-73.405 32.945-73.405 73.444v107.632c0 40.484 32.93 73.414 73.405 73.414 40.499 0 73.444-32.93 73.444-73.414v-107.632z" />
<glyph unicode="&#xe93f;" glyph-name="diploma" d="M512 722.025h-356.955c-19.911 0-36.057-16.146-36.057-36.057 0-19.908 16.146-36.054 36.057-36.054h356.955c19.911 0 36.057 16.146 36.057 36.054 0 19.915-16.146 36.057-36.057 36.057zM512 603.041h-356.955c-19.911 0-36.057-16.143-36.057-36.054s16.146-36.057 36.057-36.057h356.955c19.911 0 36.057 16.146 36.057 36.057s-16.146 36.054-36.057 36.054zM512 484.061h-356.955c-19.911 0-36.057-16.146-36.057-36.057s16.146-36.057 36.057-36.057h356.955c19.911 0 36.057 16.146 36.057 36.057s-16.146 36.057-36.057 36.057zM933.857 900.508h-843.717c-49.704 0-90.14-40.436-90.14-90.14v-605.746c0-49.704 40.436-90.143 90.14-90.143h534.535v-82.934c0-13.298 7.32-25.514 19.039-31.789 11.726-6.285 25.959-5.585 37.012 1.786l69.242 46.159 69.239-46.159c6.030-4.024 13.009-6.058 20.004-6.058 5.83 0 11.681 1.414 17.012 4.268 11.719 6.272 19.039 18.491 19.039 31.789v82.934h58.592c49.704 0 90.143 40.439 90.143 90.143v605.749c0.003 49.704-40.436 90.14-90.14 90.14zM749.971 292.538c-52.686 0-95.553 43.053-95.553 95.97 0 52.914 42.867 95.966 95.553 95.966s95.549-43.053 95.549-95.966c0-52.917-42.86-95.97-95.549-95.97zM769.972 121.047c-6.058 4.037-13.029 6.054-20.001 6.054s-13.946-2.017-20.001-6.054l-33.185-22.121v130.22c16.725-5.627 34.595-8.716 53.186-8.716 18.587 0 36.461 3.089 53.182 8.716v-130.22l-33.182 22.121zM951.889 204.626c0-9.771-8.261-18.029-18.032-18.029h-58.592v90.391c26.331 29.693 42.367 68.749 42.367 111.519 0 92.677-75.211 168.081-167.66 168.081s-167.664-75.404-167.664-168.081c0-42.767 16.036-81.823 42.367-111.519v-90.391h-534.535c-9.771 0-18.029 8.258-18.029 18.029v605.743c0 9.771 8.258 18.029 18.029 18.029h843.717c9.771 0 18.032-8.258 18.032-18.029v-605.743z" />
<glyph unicode="&#xe940;" glyph-name="down-arrow-with-cloud" d="M790.292 566.43c-2.769 0-5.538-0.050-8.316-0.149-13.595 136.97-129.486 244.293-269.973 244.293s-256.379-107.324-269.978-244.293c-2.773 0.1-5.548 0.149-8.316 0.149-128.867 0-233.708-104.841-233.708-233.71s104.841-233.71 233.71-233.71c15 0 27.163 12.161 27.163 27.163 0 15-12.163 27.163-27.163 27.163-98.908 0-179.383 80.471-179.383 179.383s80.474 179.383 179.383 179.383c9.899 0 19.899-0.828 29.733-2.463 7.941-1.32 16.058 0.95 22.158 6.198 6.106 5.247 9.569 12.932 9.457 20.982l-0.018 0.98c-0.008 0.489-0.018 0.977-0.018 1.467 0 119.644 97.335 216.98 216.98 216.98s216.981-97.334 216.981-216.978c0-0.462-0.008-0.922-0.018-1.38l-0.013-1.131c-0.097-8.038 3.377-15.708 9.48-20.94 6.106-5.234 14.204-7.494 22.145-6.172 9.802 1.631 19.797 2.461 29.714 2.461 98.913 0 179.383-80.471 179.383-179.383s-80.469-179.383-179.383-179.383c-15 0-27.163-12.163-27.163-27.163 0-15.004 12.163-27.163 27.163-27.163 128.869 0 233.71 104.841 233.71 233.71 0.002 128.865-104.84 233.707-233.708 233.707zM382.287 548.912c0 64.4 52.391 116.793 116.793 116.793 15 0 27.163 12.163 27.163 27.163s-12.163 27.163-27.163 27.163c-94.357 0-171.12-76.763-171.12-171.12 0-15 12.158-27.163 27.163-27.163 15.002 0.002 27.164 12.163 27.164 27.164zM730.416 299.787h-78.582v83.784c0 15.004-12.163 27.163-27.163 27.163h-225.341c-15 0-27.163-12.161-27.163-27.163v-83.786h-78.577c-11.751 0-22.168-7.551-25.819-18.718s0.288-23.413 9.763-30.357l218.412-160.032c4.779-3.502 10.417-5.252 16.058-5.252 5.637 0 11.272 1.75 16.054 5.252l218.412 160.032c9.475 6.942 13.414 19.192 9.763 30.357-3.654 11.167-14.072 18.72-25.818 18.72zM512.004 146.267l-135.386 99.194h22.71c15 0 27.163 12.163 27.163 27.163v83.784h171.015v-83.786c0-15 12.163-27.163 27.163-27.163h22.71l-135.376-99.193z" />
<glyph unicode="&#xe941;" glyph-name="Download2" d="M960-64h-896v256h64v-192h768v192h64zM512 166.304l-315.808 473.696h187.808v320h64v-384h-132.192l196.192-294.304 196.224 294.304h-132.224v384h64v-320h187.776z" />
<glyph unicode="&#xe942;" glyph-name="download" d="M856.723 698.166h-210.075c-20.078 0-36.348-16.269-36.348-36.348 0-20.074 16.269-36.348 36.348-36.348h173.732v-616.776h-616.756v616.776h173.713c20.078 0 36.348 16.269 36.348 36.348s-16.269 36.348-36.348 36.348h-210.060c-20.074 0-36.348-16.269-36.348-36.348v-689.471c0-20.078 16.274-36.348 36.348-36.348h689.452c20.078 0 36.348 16.269 36.348 36.348v689.471c-0.005 20.074-16.274 36.348-36.352 36.348zM397.682 468.25c-14.195 14.195-37.21 14.2-51.4 0.005-14.2-14.2-14.2-37.21-0.005-51.405l140.006-140.011c6.819-6.819 16.061-10.647 25.705-10.647 9.639 0 18.881 3.829 25.7 10.643l140.016 140.011c14.2 14.195 14.2 37.21 0.005 51.4-14.195 14.195-37.21 14.2-51.4 0.005l-77.968-77.963v533.365c0 20.078-16.269 36.348-36.348 36.348s-36.348-16.269-36.348-36.348v-533.36l-77.963 77.958z" />
<glyph unicode="&#xe943;" glyph-name="download6" d="M760.474 466.074c-9.984 9.984-26.214 9.984-36.198 0l-212.275-212.275v578.202c0 14.131-11.469 25.6-25.6 25.6s-25.6-11.469-25.6-25.6v-578.202l-212.275 212.275c-9.984 9.984-26.214 9.984-36.198 0s-9.984-26.214 0-36.198l256-256c5.018-5.018 11.571-7.475 18.125-7.475s13.107 2.509 18.125 7.526l256 256c9.984 9.984 9.984 26.214 0 36.198zM896-12.8h-819.2c-42.342 0-76.8 34.458-76.8 76.8v102.4c0 14.131 11.469 25.6 25.6 25.6s25.6-11.469 25.6-25.6v-102.4c0-14.131 11.469-25.6 25.6-25.6h819.2c14.131 0 25.6 11.469 25.6 25.6v102.4c0 14.131 11.469 25.6 25.6 25.6s25.6-11.469 25.6-25.6v-102.4c0-42.342-34.458-76.8-76.8-76.8z" />
<glyph unicode="&#xe944;" glyph-name="download-big-arrow" d="M160.074 433.057l332.782-265.188c5.6-4.464 12.368-6.693 19.143-6.693 6.77 0 13.543 2.232 19.143 6.693l332.777 265.188c10.208 8.137 14.157 21.839 9.848 34.16s-15.939 20.577-28.99 20.577h-140.877v395.664c0 16.965-13.752 30.715-30.715 30.715h-322.376c-16.968 0-30.715-13.75-30.715-30.715v-395.662h-140.877c-13.059 0-24.686-8.252-28.995-20.577-4.31-12.323-0.361-26.025 9.852-34.162zM350.809 426.364c16.963 0 30.715 13.75 30.715 30.715v395.664h260.948v-395.662c0-16.965 13.752-30.715 30.715-30.715h83.762l-244.95-195.201-244.954 195.199h83.764zM993.285 291.507c-16.963 0-30.715-13.752-30.715-30.715v-217.535h-901.14v217.535c0 16.963-13.752 30.715-30.715 30.715s-30.715-13.752-30.715-30.715v-248.25c0-16.965 13.752-30.715 30.715-30.715h962.57c16.963 0 30.715 13.75 30.715 30.715v248.25c0 16.963-13.755 30.715-30.715 30.715z" />
<glyph unicode="&#xe945;" glyph-name="DSLRCamera" d="M1024 32h-256v64h192v544h-210.112l-96 160h-283.776l-96-160h-210.112v-544h192v-64h-256v672h237.888l96 160h356.224l96-160h237.888zM512 32c-158.784 0-288 129.216-288 288s129.216 288 288 288 288-129.216 288-288-129.216-288-288-288zM512 544c-123.52 0-224-100.48-224-224s100.48-224 224-224 224 100.48 224 224-100.48 224-224 224zM832 576h64v-64h-64v64zM416 320h-64c0 88.224 71.776 160 160 160v-64c-52.928 0-96-43.072-96-96z" />
<glyph unicode="&#xe946;" glyph-name="earning-a-degree" d="M674.749-47.954c-64.468 0-128.003 6.242-188.837 18.546-11.528 2.333-19.819 12.468-19.819 24.228v212.024l-108.197 32.314c-10.472 3.127-17.643 12.758-17.643 23.687s7.175 20.557 17.643 23.687l309.777 92.522c4.61 1.378 9.535 1.378 14.146 0l309.196-92.348c2.117-0.578 4.119-1.424 5.97-2.509 7.465-4.357 12.258-12.421 12.258-21.348 0-0.256-0.003-0.513-0.012-0.769v-109.661l12.866-30.949c5.241-12.607-0.726-27.074-13.333-32.314-8.337-3.464-17.489-2.027-24.253 2.991-6.758-5.021-15.913-6.458-24.253-2.991-12.604 5.244-18.574 19.711-13.33 32.317l12.863 30.924v77.263l-277.972-83.026c-4.61-1.378-9.535-1.378-14.146 0l-152.142 45.443v-176.793c51.552-9.162 105.008-13.8 159.214-13.8 54.2 0 107.659 4.638 159.214 13.8v117.741c0 13.651 11.068 24.719 24.719 24.719s24.719-11.068 24.719-24.719v-138.209c0-11.763-8.29-21.895-19.819-24.228-60.834-12.301-124.369-18.543-188.831-18.543zM498.497 248.765l176.255-52.643 223.401 66.727-223.401 66.724-223.398-66.724 45.95-13.725c0.399-0.108 0.797-0.229 1.193-0.358zM381.624 33.138h-292.137c-49.343 0-89.487 40.141-89.487 89.484v315.812c0 13.651 11.068 24.719 24.719 24.719h29.404c13.651 0 24.719-11.068 24.719-24.719s-11.068-24.719-24.719-24.719h-4.684v-291.092c0-22.081 17.965-40.045 40.048-40.045h16.822v736.433c0 13.651 11.068 24.719 24.719 24.719h85.127c12.836 57.284 64.094 100.222 125.194 100.222 61.097 0 112.359-42.938 125.191-100.222h298.786c13.651 0 24.719-11.068 24.719-24.719v-377.344c0-13.651-11.068-24.719-24.719-24.719s-24.719 11.068-24.719 24.719v352.625h-272.757c-10.209-60.593-63.050-106.905-126.501-106.905-16.293 0-31.882 3.050-46.234 8.618v-71.38l33.566 15.768c6.476 3.044 13.957 3.133 20.505 0.235l38.398-16.973v26.929c0 13.651 11.068 24.719 24.719 24.719s24.719-11.068 24.719-24.719v-64.882c0-8.358-4.224-16.151-11.229-20.715-7.005-4.561-15.839-5.278-23.486-1.894l-62.806 27.76-58.597-27.525c-7.66-3.597-16.621-3.028-23.761 1.505-7.141 4.536-11.467 12.409-11.467 20.866v144.602c-15.765 17.647-26.731 39.672-30.828 63.992h-59.098v-711.714h225.876c13.651 0 24.719-11.068 24.719-24.719s-11.068-24.719-24.722-24.719zM262.529 817.586c-0.015-0.64-0.022-1.276-0.022-1.919 0-43.475 35.37-78.846 78.846-78.846s78.846 35.37 78.846 78.846c0 0.671-0.009 1.344-0.025 2.012-0.019 0.352-0.031 0.705-0.034 1.060-1.619 42.054-36.341 75.771-78.787 75.771-42.415 0-77.112-33.668-78.781-75.678-0.006-0.417-0.019-0.831-0.043-1.245zM390.758 365.437h-69.434c-13.651 0-24.719 11.068-24.719 24.719s11.068 24.719 24.719 24.719h69.434c13.651 0 24.719-11.068 24.719-24.719s-11.068-24.719-24.719-24.719zM575.041 460.128h-253.717c-13.651 0-24.719 11.068-24.719 24.719s11.068 24.719 24.719 24.719h253.717c13.651 0 24.719-11.068 24.719-24.719s-11.068-24.719-24.719-24.719zM650.617 580.585h-74.72c-13.651 0-24.719 11.068-24.719 24.719s11.068 24.719 24.719 24.719h74.72c13.651 0 24.719-11.068 24.719-24.719s-11.068-24.719-24.719-24.719zM649.069 669.961h-74.724c-13.651 0-24.719 11.068-24.719 24.719s11.068 24.719 24.719 24.719h74.724c13.651 0 24.719-11.068 24.719-24.719s-11.068-24.719-24.719-24.719z" />
<glyph unicode="&#xe947;" glyph-name="earth" d="M874.035 810.035c-96.717 96.717-225.28 149.965-362.035 149.965s-265.318-53.248-362.035-149.965c-96.717-96.717-149.965-225.28-149.965-362.035s53.248-265.318 149.965-362.035c96.717-96.717 225.28-149.965 362.035-149.965s265.318 53.248 362.035 149.965c96.717 96.717 149.965 225.28 149.965 362.035s-53.248 265.318-149.965 362.035zM941.926 613.837c-9.984 17.971-35.072 26.522-67.84 37.683-35.174 11.981-47.616 48.128-62.003 90.010-12.493 36.352-25.395 73.882-56.064 97.229 83.917-52.582 149.709-131.43 185.907-224.922zM798.259 438.221c3.891-34.662 7.885-70.554-35.174-118.886-11.622-13.056-18.432-31.232-25.651-50.483-16.691-44.595-32.461-86.733-99.635-87.347-1.894 2.253-7.219 10.752-11.981 37.53-4.352 24.678-6.861 56.627-9.574 90.368-4.096 51.814-8.755 110.592-21.555 159.334-16.384 62.31-43.878 99.123-84.019 112.538-17.51 5.837-35.43 8.704-54.682 8.704-14.234 0-27.136-1.536-38.502-2.867-8.858-1.024-17.254-2.048-24.32-2.048 0 0 0 0 0 0-11.981 0-25.549 0-42.291 38.298-24.013 55.040-6.298 143.258 64.205 189.798 38.656 25.498 65.331 36.403 89.19 36.403 19.046 0 39.578-6.605 68.71-22.17 34.406-18.33 61.389-20.685 81.050-20.685 7.782 0 14.848 0.41 21.658 0.819 5.734 0.358 11.11 0.666 16.128 0.666 11.264 0 20.378-1.485 31.078-8.755 19.712-13.466 29.952-43.213 40.755-74.65 16.384-47.718 34.97-101.786 93.952-121.856 7.936-2.714 21.555-7.322 31.232-11.366-8.346-8.602-22.272-21.043-35.942-33.229-8.806-7.885-18.79-16.794-29.85-26.88-31.949-29.133-28.16-63.232-24.781-93.286zM51.251 451.942c5.53-0.973 11.469-2.15 17.613-3.43 28.774-6.144 42.24-11.674 48.128-14.797-2.714-5.274-8.192-13.056-11.827-18.176-12.646-17.971-28.416-40.346-22.426-64.973 4.045-16.64 0.614-37.018-5.274-55.859-16.998 48.026-26.266 99.635-26.266 153.395 0 1.331 0.051 2.611 0.051 3.942zM512-12.8c-175.36 0-328.192 98.509-406.016 243.046 13.414 25.549 38.298 82.074 26.675 131.533 0.819 4.966 9.267 16.947 14.336 24.166 13.875 19.712 31.13 44.186 18.33 70.144-8.96 18.227-32.973 30.515-80.179 41.165-10.957 2.458-21.606 4.454-30.669 6.042 27.443 228.096 222.106 405.453 457.472 405.453 80.794 0 156.774-20.941 222.822-57.6-16.333 7.117-31.13 8.243-43.008 8.243-6.502 0-12.954-0.358-19.2-0.768-6.093-0.358-12.39-0.717-18.637-0.717-14.541 0-32.666 1.741-56.934 14.694-37.069 19.712-64.819 28.16-92.774 28.16-34.611 0-69.734-13.414-117.402-44.851-41.216-27.187-72.243-68.762-87.398-117.146-14.797-47.155-13.21-95.437 4.454-135.885 20.838-47.718 48.333-69.018 89.19-69.018 0 0 0 0 0 0 10.086 0 19.917 1.178 30.31 2.406 10.496 1.229 21.299 2.509 32.512 2.509 13.875 0 26.112-1.946 38.451-6.042 22.477-7.526 39.066-32.717 50.739-77.005s16.077-100.659 20.019-150.323c3.277-41.472 6.349-80.589 13.158-110.131 4.147-17.92 9.472-31.539 16.384-41.626 10.291-15.053 25.037-23.347 41.523-23.347 45.261 0 81.408 14.592 107.469 43.366 21.658 23.91 32.717 53.453 41.626 77.21 5.222 13.978 10.65 28.467 15.923 34.406 58.214 65.382 52.224 119.245 47.821 158.618-3.226 28.877-3.277 39.117 8.397 49.766 10.854 9.882 20.736 18.739 29.44 26.522 18.586 16.589 32 28.57 41.421 38.81 6.451 7.066 21.606 23.603 17.408 44.288-0.051 0.205-0.102 0.358-0.102 0.563 17.562-48.691 27.136-101.171 27.136-155.853 0-254.106-206.694-460.8-460.8-460.8z" />
<glyph unicode="&#xe948;" glyph-name="educational-programs" d="M638.619-23.997c-71.588 0-142.13 6.928-209.668 20.594-11.077 2.242-19.044 11.982-19.044 23.285v239.079l-123.262 36.817c-10.064 3.005-16.959 12.261-16.959 22.765s6.895 19.757 16.959 22.765l345.176 103.098c4.431 1.324 9.164 1.324 13.595 0l344.656-102.941c2.043-0.558 3.973-1.381 5.755-2.429 7.145-4.193 11.73-11.926 11.73-20.49 0-0.214-0.003-0.431-0.009-0.641v-123.173l14.625-35.178c5.036-12.116-0.698-26.020-12.814-31.056-8.983-3.736-18.958-1.544-25.568 4.787-6.607-6.331-16.582-8.523-25.565-4.784-12.116 5.036-17.853 18.943-12.814 31.056l14.628 35.175v91.915l-314.619-93.973c-4.431-1.324-9.161-1.324-13.598 0l-174.401 52.093v-205.252c58.623-10.622 119.478-16 181.201-16s122.579 5.378 181.204 16v134.368c0 13.12 10.637 23.757 23.757 23.757s23.757-10.637 23.757-23.757v-154c0-11.305-7.967-21.042-19.044-23.285-67.546-13.666-138.089-20.594-209.68-20.594zM441.058 299.243l197.558-59.009 262.17 78.308-262.17 78.305-262.167-78.305 63.427-18.946c0.401-0.11 0.796-0.226 1.182-0.353zM334.61 108.405c-2.346 0-4.731 0.35-7.091 1.087l-310.848 97.111c-9.918 3.1-16.671 12.285-16.671 22.676v666.961c0 7.558 3.596 14.664 9.684 19.139s13.933 5.791 21.158 3.537l406.162-126.893 399.481 124.806c7.219 2.254 15.071 0.938 21.158-3.537s9.684-11.581 9.684-19.139v-424.182c0-13.12-10.637-23.757-23.757-23.757s-23.757 10.637-23.757 23.757v391.87l-362.397-113.221v-266.663c0-13.12-10.637-23.757-23.757-23.757s-23.757 10.637-23.757 23.757v268.754l-362.391 113.219v-617.181l294.173-91.903c12.523-3.914 19.501-17.238 15.59-29.761-3.174-10.165-12.552-16.677-22.667-16.677zM228.715 423.387c-2.346 0-4.734 0.35-7.091 1.087l-65.052 20.327c-12.526 3.911-19.504 17.238-15.59 29.758 3.911 12.52 17.235 19.507 29.758 15.59l65.052-20.327c12.526-3.911 19.504-17.235 15.59-29.758-3.174-10.165-12.549-16.677-22.667-16.677zM573.564 521.22c-10.117 0-19.492 6.512-22.67 16.677-3.911 12.523 3.068 25.847 15.59 29.761l130.104 40.645c12.526 3.914 25.847-3.068 29.758-15.59s-3.068-25.847-15.59-29.761l-130.104-40.645c-2.355-0.739-4.739-1.087-7.088-1.087zM293.769 521.22c-2.349 0-4.734 0.35-7.094 1.087l-130.104 40.645c-12.523 3.914-19.501 17.238-15.59 29.761 3.911 12.52 17.238 19.504 29.758 15.59l130.104-40.645c12.523-3.914 19.501-17.238 15.59-29.761-3.174-10.165-12.549-16.677-22.664-16.677zM573.564 632.122c-10.117 0-19.492 6.512-22.67 16.677-3.911 12.523 3.068 25.847 15.59 29.761l130.104 40.648c12.526 3.914 25.847-3.068 29.758-15.59s-3.068-25.847-15.59-29.758l-130.104-40.648c-2.355-0.739-4.739-1.090-7.088-1.090zM293.766 632.122c-2.346 0-4.734 0.35-7.091 1.087l-130.101 40.651c-12.523 3.911-19.501 17.235-15.59 29.758s17.241 19.504 29.758 15.59l130.104-40.648c12.523-3.914 19.501-17.238 15.59-29.761-3.177-10.162-12.552-16.677-22.67-16.677z" />
<glyph unicode="&#xe949;" glyph-name="elemental-tip" d="M512.002 920.519c-197.455 0-358.097-160.646-358.097-358.104 0-139.528 80.223-260.66 196.956-319.732v-213.3c0-51.493 41.894-93.383 93.383-93.383h135.516c51.489 0 93.383 41.894 93.383 93.383v213.302c116.733 59.069 196.961 180.202 196.961 319.729 0 197.46-160.648 358.106-358.102 358.106zM539.852 266.337c-9.174-0.855-18.462-1.315-27.852-1.315-9.397 0-18.685 0.46-27.859 1.315 2.075 41.534 1.068 120.904-28.381 190.693h112.476c-29.447-69.791-30.454-149.163-28.384-190.693zM612.439 91.354h-200.875v127.324c31.88-9.331 65.58-14.359 100.437-14.359s68.558 5.026 100.437 14.359v-127.324zM612.439 29.385c0-18.022-14.657-32.679-32.679-32.679h-135.516c-18.022 0-32.679 14.661-32.679 32.679v1.265h200.875v-1.265zM600.206 278.376c-1.409 46.779 2.488 133.297 43.942 191.371 6.604 9.253 7.484 21.42 2.281 31.528-5.202 10.108-15.621 16.458-26.987 16.458h-214.883c-11.366 0-21.78-6.353-26.982-16.458-5.209-10.108-4.322-22.275 2.282-31.528 41.454-58.079 45.345-144.605 43.937-191.371-121.051 37.669-209.187 150.756-209.187 284.041 0 163.986 133.406 297.4 297.393 297.4s297.398-133.414 297.398-297.4c0-133.287-88.143-246.374-209.194-284.041zM119.786 829.228c5.928-5.926 13.693-8.891 21.459-8.891 7.77 0 15.536 2.965 21.464 8.893 11.853 11.853 11.853 31.070 0 42.923l-78.96 78.957c-11.855 11.855-31.073 11.855-42.926 0-11.85-11.855-11.85-31.070 0-42.923l78.963-78.958zM882.755 820.338c7.77 0 15.537 2.965 21.464 8.891l78.953 78.955c11.858 11.855 11.858 31.070 0 42.926s-31.073 11.853-42.926 0l-78.953-78.955c-11.858-11.855-11.858-31.073 0-42.926 5.93-5.926 13.695-8.891 21.462-8.891zM904.219 295.608c-11.853 11.855-31.068 11.858-42.924 0.003-11.858-11.855-11.858-31.070 0-42.923l78.953-78.96c5.928-5.928 13.693-8.891 21.464-8.891 7.765 0 15.532 2.965 21.459 8.891 11.858 11.85 11.858 31.070 0 42.923l-78.952 78.957zM119.786 295.611l-78.963-78.96c-11.85-11.853-11.85-31.070 0-42.926 5.928-5.926 13.693-8.891 21.464-8.891 7.765 0 15.537 2.962 21.459 8.891l78.963 78.96c11.853 11.855 11.853 31.070 0 42.926-11.85 11.855-31.070 11.855-42.923 0z" />
<glyph unicode="&#xe94a;" glyph-name="enter" d="M896 857.6h-460.8c-42.342 0-76.8-34.458-76.8-76.8v-153.6c0-14.131 11.469-25.6 25.6-25.6s25.6 11.469 25.6 25.6v153.6c0 14.131 11.469 25.6 25.6 25.6h387.277l-196.71-84.326c-35.072-15.053-62.566-56.73-62.566-94.874v-486.4h-128c-14.131 0-25.6 11.469-25.6 25.6v153.6c0 14.131-11.469 25.6-25.6 25.6s-25.6-11.469-25.6-25.6v-153.6c0-42.342 34.458-76.8 76.8-76.8h128v-76.8c0-22.17 9.216-41.011 25.344-51.61 8.909-5.837 19.251-8.806 30.157-8.806 8.858 0 18.125 1.946 27.238 5.837l264.294 113.254c35.072 15.053 62.566 56.73 62.566 94.925v614.4c0 42.342-34.458 76.8-76.8 76.8zM921.6 166.4c0-17.971-15.053-40.755-31.539-47.821l-264.294-113.254c-4.915-2.099-8.141-1.946-9.062-1.382s-2.304 3.533-2.304 8.858v614.4c0 17.971 15.053 40.755 31.539 47.821l273.050 117.043c1.69-3.379 2.611-7.219 2.611-11.264v-614.4zM427.725 491.725l-153.6 153.6c-9.984 9.984-26.214 9.984-36.198 0s-9.984-26.214 0-36.198l109.875-109.875h-322.202c-14.131 0-25.6-11.469-25.6-25.6s11.469-25.6 25.6-25.6h322.202l-109.875-109.875c-9.984-9.984-9.984-26.214 0-36.198 5.018-5.018 11.571-7.475 18.125-7.475s13.107 2.509 18.125 7.475l153.6 153.6c9.984 9.984 9.984 26.214 0 36.198z" />
<glyph unicode="&#xe94b;" glyph-name="enter-down" d="M658.125 363.725c-9.984 9.984-26.214 9.984-36.198 0l-109.875-109.875v629.402c0 14.131-11.469 25.6-25.6 25.6s-25.6-11.469-25.6-25.6v-629.402l-109.875 109.875c-9.984 9.984-26.214 9.984-36.198 0s-9.984-26.214 0-36.198l153.6-153.6c5.018-5.018 11.571-7.475 18.125-7.475s13.107 2.509 18.125 7.475l153.6 153.6c9.984 9.984 9.984 26.214 0 36.198zM793.6-64h-614.4c-42.342 0-76.8 34.458-76.8 76.8v512c0 42.342 34.458 76.8 76.8 76.8h204.8c14.131 0 25.6-11.469 25.6-25.6s-11.469-25.6-25.6-25.6h-204.8c-14.131 0-25.6-11.469-25.6-25.6v-512c0-14.131 11.469-25.6 25.6-25.6h614.4c14.131 0 25.6 11.469 25.6 25.6v512c0 14.131-11.469 25.6-25.6 25.6h-204.8c-14.131 0-25.6 11.469-25.6 25.6s11.469 25.6 25.6 25.6h204.8c42.342 0 76.8-34.458 76.8-76.8v-512c0-42.342-34.458-76.8-76.8-76.8z" />
<glyph unicode="&#xe94c;" glyph-name="envelope" d="M896 652.8h-819.2c-42.342 0-76.8-34.458-76.8-76.8v-460.8c0-42.342 34.458-76.8 76.8-76.8h819.2c42.342 0 76.8 34.458 76.8 76.8v460.8c0 42.342-34.458 76.8-76.8 76.8zM896 601.6c1.536 0 2.97-0.154 4.454-0.41l-385.638-257.075c-14.848-9.882-41.933-9.882-56.781 0l-385.638 257.075c1.434 0.256 2.918 0.41 4.454 0.41h819.2zM896 89.6h-819.2c-14.131 0-25.6 11.469-25.6 25.6v438.579l378.419-252.262c15.923-10.598 36.352-15.923 56.781-15.923s40.858 5.325 56.781 15.923l378.419 252.262v-438.579c0-14.131-11.469-25.6-25.6-25.6z" />
</font>
</defs>
</svg>
